<?xml version="1.0" encoding="utf-8"?>
<!-- Generator: Adobe Illustrator 15.1.0, SVG Export Plug-In . SVG Version: 6.00 Build 0)  -->
<!DOCTYPE svg PUBLIC "-//W3C//DTD SVG 1.0//EN" "http://www.w3.org/TR/2001/REC-SVG-20010904/DTD/svg10.dtd">
<svg version="1.0" id="Layer_1" xmlns="http://www.w3.org/2000/svg" xmlns:xlink="http://www.w3.org/1999/xlink" x="0px" y="0px"
	 width="286px" height="429px" viewBox="0 0 286 429" enable-background="new 0 0 286 429" xml:space="preserve">
<g>
	<defs>
		<rect id="SVGID_1_" x="30.259" y="101.332" width="206.388" height="309.596"/>
	</defs>
	<clipPath id="SVGID_2_">
		<use xlink:href="#SVGID_1_"  overflow="visible"/>
	</clipPath>
	
		<radialGradient id="SVGID_3_" cx="-3889.7354" cy="-3743.7734" r="0.0913" gradientTransform="matrix(0.8079 0 0 0.8079 3169.4478 3116.7534)" gradientUnits="userSpaceOnUse">
		<stop  offset="0" style="stop-color:#FFF4E9"/>
		<stop  offset="1" style="stop-color:#E8BAA9"/>
	</radialGradient>
	<path clip-path="url(#SVGID_2_)" fill="url(#SVGID_3_)" stroke="#1D1D1B" stroke-width="0.5" d="M26.93,92.17
		c0.361-0.008-0.358-0.014,0-0.022"/>
	
		<radialGradient id="SVGID_4_" cx="-3889.7354" cy="-3743.7441" r="0.0987" gradientTransform="matrix(0.8079 0 0 0.8079 3169.4478 3116.7534)" gradientUnits="userSpaceOnUse">
		<stop  offset="0" style="stop-color:#FFF4E9"/>
		<stop  offset="1" style="stop-color:#E8BAA9"/>
	</radialGradient>
	<path clip-path="url(#SVGID_2_)" fill="url(#SVGID_4_)" stroke="#1D1D1B" stroke-width="0.5" d="M26.93,92.195
		c0.389-0.008-0.386-0.017,0-0.025"/>
	
		<radialGradient id="SVGID_5_" cx="-3493.3428" cy="-3743.7734" r="0.091" gradientTransform="matrix(-0.8079 0 0 0.8079 -2794.4478 3116.7534)" gradientUnits="userSpaceOnUse">
		<stop  offset="0" style="stop-color:#FFF4E9"/>
		<stop  offset="1" style="stop-color:#E8BAA9"/>
	</radialGradient>
	<path clip-path="url(#SVGID_2_)" fill="url(#SVGID_5_)" stroke="#1D1D1B" stroke-width="0.5" d="M27.824,92.17
		c-0.358-0.008,0.358-0.014,0-0.022"/>
	
		<radialGradient id="SVGID_6_" cx="-3493.3428" cy="-3743.7441" r="0.0983" gradientTransform="matrix(-0.8079 0 0 0.8079 -2794.4478 3116.7534)" gradientUnits="userSpaceOnUse">
		<stop  offset="0" style="stop-color:#FFF4E9"/>
		<stop  offset="1" style="stop-color:#E8BAA9"/>
	</radialGradient>
	<path clip-path="url(#SVGID_2_)" fill="url(#SVGID_6_)" stroke="#1D1D1B" stroke-width="0.5" d="M27.824,92.195
		c-0.386-0.008,0.386-0.017,0-0.025"/>
	<path clip-path="url(#SVGID_2_)" fill="#FAD6C7" stroke="#1D1D1B" stroke-width="0.5" d="M75.539,390.494
		c-1.226-0.477-1.965-0.651-1.965-0.651l9.13-1.015c0,0,10.887-2.289,22.354-8.896c20.167-11.622,25.068-15.16,41.393-28.566
		c34.455-28.305,55.967-78.123,56.55-112.52c0.584-34.396-0.583-67.628-43.143-96.778c-16.418-11.245-70.233-29.15-132.035-26.819
		H26.93c-61.796-2.332-115.614,15.574-132.032,26.819c-42.556,29.15-43.723,62.382-43.14,96.778s22.095,84.215,56.549,112.52
		c16.324,13.406,21.225,16.944,41.393,28.566c11.467,6.607,22.351,8.896,22.351,8.896l5.911,0.656"/>
	<path clip-path="url(#SVGID_2_)" fill="#FFEFC3" stroke="#FFEEC5" stroke-width="0.5031" d="M-132.444,164.593
		c-21.785,30.58-23.998,70.927-6.571,119.913c15.385,43.251,44.858,70.664,66.876,86.044c25.067,17.515,54.229,29.156,80.013,31.938
		l0.755-7.295c-24.637-2.661-52.595-13.847-76.709-30.695c-21.146-14.773-49.444-41.077-64.178-82.495
		c-16.561-46.557-14.667-84.607,5.629-113.097c39.774-55.831,137.316-55.358,156.465-54.695l3.673,0.003
		c19.098-0.657,115.761-1.122,155.237,54.292c20.321,28.521,22.185,66.709,5.542,113.497
		c-14.734,41.418-43.036,67.722-64.181,82.495c-24.485,17.105-52.804,28.333-77.7,30.799l0.693,7.302
		c26.063-2.582,55.614-14.264,81.066-32.049c22.016-15.38,51.49-42.793,66.875-86.044c17.508-49.221,15.329-89.7-6.48-120.313
		c-41.612-58.41-141.56-57.99-161.173-57.313h-3.431C10.293,106.197-90.533,105.763-132.444,164.593z"/>
	<path clip-path="url(#SVGID_2_)" fill="#F9ECE6" stroke="#E5AB97" d="M26.93,154.327c-1.892-0.096-3.481-0.938-5.13-2.154
		c-1.847-1.358-3.887-1.358-5.833-0.389c-1.39,0.696-3.495,1.167-5.051,1.942c-1.167,0.389-2.362,0.905-3.499,1.167
		c-3.789,0.874-6.996,1.167-10.495-0.389c-1.553-0.389-4.076-0.852-5.44-1.167c-5.051-1.165-6.218-1.942-9.717-0.775
		c-3.109,0.775-5.44,3.499-8.938,3.887c-5.44,1.164-10.884,0-16.324,0.775c-2.332,0-3.499,2.723-5.44,3.499
		c-3.888,1.945-8.165,0-12.05,1.167c-1.945,0.39-3.498,1.942-5.054,3.499c-3.109,3.109-8.938,1.165-13.214,3.109
		c-0.775,0.39-1.164,0.778-1.942,1.164c-2.332,2.334-3.499,5.055-5.829,7.386c-1.945,1.167-3.887,1.557-5.83,2.721
		c-2.334,1.944-3.887,4.276-4.665,6.607c-0.778,2.331-1.167,5.054-3.109,6.607c-3.887,3.498-3.887,9.327-5.44,13.214
		c-1.944,5.44-5.053,10.495-4.665,16.324c0.155,2.326,1.201,5.058,0.778,7.387c-1.556,8.55,1.942,16.155,1.942,25.651
		c2.72,3.109,3.109,7.383,3.887,11.659c0,0.389,0.778,1.167,1.167,1.942c1.942,2.72,1.553,5.829,3.499,7.774
		c1.552,1.942,3.498,3.109,4.662,5.052c1.556,2.72,1.556,5.829,3.11,8.553c2.331,2.331,5.44,3.884,6.607,6.996
		c0.388,1.942,1.555,3.885,2.72,5.829c1.556,2.721,3.887,4.273,6.218,6.607c3.498,2.721,4.276,7.772,8.163,10.492
		c3.109,2.331,6.607,3.109,8.938,5.83c2.332,3.108,5.053,5.832,8.94,6.996c1.945,0.778,3.109,4.276,5.443,5.055
		c1.165,0.774,2.718,0.389,3.885,1.164c2.334,1.167,3.887,4.276,6.997,5.054c1.167,0,2.72,0,3.498,0.39
		c1.167,1.164,2.331,1.553,3.498,2.331c5.052,3.109,11.27,2.331,15.936,5.44c1.164,0.778,2.72,0.778,4.273,1.556
		c5.054,1.942,10.241,0.068,15.549,2.721c6.219,3.109,10.881,9.717,7.772,15.546c-0.778,1.556-4.335,1.303-6.608,0.778
		c-10.105-2.334-67.24-26.041-67.24-26.041L-98.3,305.696l-26.04-68.406c-0.775-7.383,9.328-52.857,9.328-52.857l49.359-34.591
		c17.337-4.335,61.605-10.766,92.583-11.141h0.894c30.982,0.375,75.25,6.806,92.586,11.141l51.529,27.755
		c0,0,14.247,53.235,13.472,60.617l-26.461,69.76l-47.089,39.31c0,0-57.134,23.707-67.242,26.041
		c-2.272,0.524-5.83,0.777-6.607-0.778c-3.109-5.829,1.556-12.437,7.774-15.546c5.305-2.652,10.495-0.778,15.546-2.721
		c1.556-0.777,3.109-0.777,4.276-1.556c4.662-3.109,10.881-2.331,15.935-5.44c1.167-0.778,2.334-1.167,3.498-2.331
		c0.775-0.39,2.332-0.39,3.499-0.39c3.109-0.777,4.665-3.887,6.997-5.054c1.164-0.775,2.717-0.39,3.884-1.164
		c2.331-0.778,3.498-4.276,5.443-5.055c3.884-1.164,6.607-3.888,8.938-6.996c2.332-2.721,5.83-3.499,8.936-5.83
		c3.89-2.72,4.666-7.771,8.164-10.492c2.331-2.334,4.665-3.887,6.221-6.607c1.164-1.944,2.332-3.887,2.72-5.829
		c1.164-3.112,4.273-4.665,6.607-6.996c1.554-2.724,1.554-5.833,3.106-8.553c1.167-1.942,3.112-3.109,4.665-5.052
		c1.945-1.945,1.557-5.055,3.499-7.774c0.389-0.775,1.164-1.554,1.164-1.942c0.777-4.276,1.167-8.55,3.887-11.659
		c0-9.496,3.499-17.102,1.945-25.651c-0.423-2.329,0.62-5.061,0.778-7.387c0.386-5.829-2.724-10.884-4.666-16.324
		c-1.556-3.887-1.556-9.716-5.44-13.214c-1.944-1.554-2.334-4.276-3.108-6.607c-0.778-2.331-2.334-4.663-4.666-6.607
		c-1.942-1.164-3.887-1.554-5.829-2.721c-2.331-2.331-3.499-5.052-5.83-7.386c-0.778-0.386-1.167-0.774-1.942-1.164
		c-4.276-1.944-10.108,0-13.215-3.109c-1.556-1.557-3.109-3.109-5.054-3.499c-3.884-1.167-8.164,0.778-12.048-1.167
		c-1.945-0.775-3.109-3.499-5.443-3.499c-5.44-0.775-10.881,0.389-16.321-0.775c-3.501-0.388-5.83-3.111-8.939-3.887
		c-3.498-1.167-4.665-0.389-9.72,0.775c-1.361,0.315-3.884,0.778-5.44,1.167c-3.498,1.556-6.703,1.263-10.492,0.389
		c-1.139-0.262-2.334-0.778-3.499-1.167c-1.556-0.775-3.665-1.246-5.054-1.942c-1.945-0.97-3.986-0.97-5.832,0.389
		c-1.649,1.215-3.242,2.058-5.133,2.154l-0.894-0.02C26.563,154.338,27.26,154.344,26.93,154.327"/>
	<path clip-path="url(#SVGID_2_)" fill="#F4DDD4" stroke="#1D1D1B" stroke-width="0.5" d="M27.824,154.307
		c0.366,0.031-0.327,0.037,0,0.02"/>
	<path clip-path="url(#SVGID_2_)" fill="#F0BAAE" stroke="#E5AB97" stroke-width="0.499" d="M188.78,167.787
		c-40.497-55.916-138.405-55.566-158.146-54.896c-0.197,0-3.352,0-3.552,0c-19.916-0.676-118.704-1.037-159.496,55.29
		c-21.04,29.054-23.092,67.614-6.1,114.607c15.062,41.644,43.945,68.068,65.529,82.901c25.363,17.432,54.683,28.735,80.441,31.008
		l1.638-18.689c-1.175-0.104-2.385-0.233-3.619-0.395l1.189-11.819c-34.943-3.516-98.873-31.859-121.668-92.937
		c-13.742-36.823-12.826-66.042,2.72-86.842c32.994-44.138,119.715-43.496,136.764-42.92l0.38,0.011h4.155l0.271-0.011
		c16.877-0.569,102.735-1.204,135.431,42.542c15.574,20.831,16.46,50.177,2.636,87.22c-23.186,62.114-87.702,90.041-122.924,93.055
		l1.108,12.941c0.555-0.048,1.136-0.121,1.703-0.181l1.579,18.024c25.759-2.272,55.081-13.576,80.443-31.008
		c21.581-14.833,50.47-41.258,65.528-82.901C211.866,235.567,209.846,196.874,188.78,167.787z"/>
	
		<radialGradient id="SVGID_7_" cx="-3886.6089" cy="-3487.8184" r="192.2443" gradientTransform="matrix(0.8079 0 0 0.8079 3170.4849 3108.6743)" gradientUnits="userSpaceOnUse">
		<stop  offset="0" style="stop-color:#FFFFFF"/>
		<stop  offset="0.3202" style="stop-color:#F6E5DE"/>
		<stop  offset="0.6404" style="stop-color:#FAC7B3"/>
		<stop  offset="1" style="stop-color:#E5AB97"/>
	</radialGradient>
	<path clip-path="url(#SVGID_2_)" fill="url(#SVGID_7_)" stroke="#E5AB97" stroke-width="0.5" d="M27.824,555.349l6.41,0.268
		c0,0,3.25-23.313,3.25-49.071c0-1.945-0.237-16.741,0.361-20.928c1.72-12.022,1.562-17.482-2.165-50.515
		c-0.964-8.519-0.595-15.301-0.725-24.175c-0.31-21.189,3.828-23.791,5.776-33.556c-0.598-12.635,4.2-11.822,10.464-15.876
		c3.307-2.14-1.277-5.773,3.969-5.773c5.249,0,0.028-5.302-2.886-1.804c-2.151,2.582,8.299-7.217,18.401-7.938
		c4.688-0.335,8.344-0.302,9.508-2.633c1.167-2.331,2.917-3.498,5.249-3.498c2.331,0,3.498,0,5.246-2.331
		c1.75-2.334,4.082-2.915,5.83-2.915c1.75,0,3.498-3.498,3.498-3.498s2.332-1.167,4.666-1.751c2.331-0.583,3.496-2.914,4.663-5.245
		c1.167-2.335,2.334-2.915,5.832-4.666c3.496-1.747,5.83-2.331,6.994-5.246c1.167-2.914,2.334-5.829,5.249-8.163
		c2.915-2.331,5.83-3.495,6.413-6.994c0.581-3.498,0-4.665,3.495-7.58c3.501-2.914,5.249-4.665,5.249-6.996s0.584-3.498,3.499-6.413
		c2.914-2.915,4.662-4.079,4.662-7.577s1.75-5.832,2.915-8.163c1.167-2.332,0-2.915,1.75-5.83c1.748-2.914,2.331-2.331,1.748-6.996
		c-0.581-4.663-0.581-5.246,0.583-9.328c1.167-4.081,1.167-5.829,1.167-10.494c0-4.663,1.165-3.499,1.165-8.162
		c0-4.665,1.55-3.061-1.165-8.163c-2.339-4.397-1.75-1.164-2.331-6.994c-0.583-5.832-0.583-6.413-3.498-9.91
		c-2.915-3.498-1.751-1.167-3.498-6.413c-1.751-5.249-1.751-4.665-5.249-6.996c-3.495-2.332-4.662-0.584-6.997-4.666
		c-2.331-4.078-2.915-4.078-7.577-5.245c-4.665-1.168-4.082,1.167-8.744-1.748c-4.665-2.915-4.665-5.83-11.078-5.83
		s-5.849,1.773-9.328-1.167c-2.241-1.895-2.825-4.809-9.238-4.226c-6.413,0.581-10.492,1.457-15.157-0.877
		c-4.663-2.331-5.919-3.061-12.335-1.311c-6.413,1.748-13.99,4.079-19.236,1.748c-5.249-2.331-6.909-4.518-12.155-2.478
		c0,0-3.267,2.918-5.542,2.918s-4.646-2.918-4.646-2.918c-5.246-2.04-6.906,0.147-12.152,2.478c-5.246,2.332-12.826,0-19.239-1.748
		c-6.413-1.75-7.67-1.021-12.333,1.311c-4.665,2.334-8.747,1.458-15.16,0.877c-6.413-0.583-6.994,2.331-9.234,4.226
		c-3.479,2.94-2.915,1.167-9.329,1.167s-6.414,2.915-11.079,5.83c-4.662,2.915-4.082,0.58-8.743,1.748
		c-4.666,1.167-5.249,1.167-7.58,5.245c-2.332,4.082-3.498,2.334-6.996,4.666c-3.499,2.331-3.499,1.747-5.247,6.996
		c-1.748,5.246-0.583,2.915-3.498,6.413c-2.914,3.497-2.914,4.078-3.498,9.91c-0.583,5.83,0.008,2.597-2.331,6.994
		c-2.715,5.103-1.167,3.498-1.167,8.163c0,4.663,1.167,3.499,1.167,8.162c0,4.665,0,6.413,1.167,10.494
		c1.164,4.082,1.164,4.665,0.581,9.328c-0.581,4.665,0,4.082,1.75,6.996c1.747,2.915,0.583,3.498,1.747,5.83
		c1.167,2.331,2.915,4.665,2.915,8.163s1.75,4.662,4.666,7.577c2.915,2.915,3.499,4.082,3.499,6.413s1.748,4.082,5.245,6.996
		c3.498,2.915,2.915,4.082,3.498,7.58c0.583,3.499,3.499,4.663,6.413,6.994c2.915,2.334,4.082,5.249,5.246,8.163
		c1.167,2.915,3.499,3.499,6.997,5.246c3.499,1.751,4.666,2.331,5.834,4.666c1.164,2.331,2.331,4.662,4.662,5.245
		c2.332,0.584,4.663,1.751,4.663,1.751s1.75,3.498,3.498,3.498c1.751,0,4.082,0.581,5.83,2.915c1.75,2.331,2.917,2.331,5.249,2.331
		c2.331,0,4.082,1.167,5.246,3.498c1.167,2.331,4.412-0.651,8.745,1.164c6.613,2.771,4.245,3.973,8.747,4.666
		c5.006,0.771,13.305,0.771,18.356,7.267c3.222,4.141-4.386,5.799-1.083,7.938c6.267,4.053,3.442-1.948,5.773,12.628
		c1.951,9.765,2.478,13.811,2.165,35c-0.129,8.874,0.601,16.738-0.361,25.257c-3.724,33.032-1.356,38.854,0.361,50.876
		c0.598,4.186,1.804,16.817,1.804,18.763c0,25.759,2.526,47.988,2.526,47.988l5.328,0.454H27.824z"/>
	<g clip-path="url(#SVGID_2_)">
		<path fill="#FFFFFF" stroke="#1D1D1B" stroke-width="0.5" d="M24.396,525.324c-33.739-1.142-45.114-19.063-72.761-31.059
			l-0.572-19.422c19.904,14.929,55.31,24.964,64.55,25.99"/>
		<path fill="none" stroke="#E8BAA9" stroke-width="0.7349" d="M-48.873,477.003c20.764,14.6,54.453,25.609,66.414,26.65"/>
		<path fill="none" stroke="#E8BAA9" stroke-width="0.7349" d="M-48.808,479.159c21.621,14.275,51.688,26.066,66.374,27.118"/>
		<path fill="none" stroke="#E8BAA9" stroke-width="0.7349" d="M-48.746,481.316c22.483,13.95,49.88,26.615,67.284,27.681"/>
		<path fill="none" stroke="#E8BAA9" stroke-width="0.7349" d="M-48.681,483.476c23.343,13.623,48.068,27.165,68.195,28.245"/>
		<path fill="none" stroke="#E8BAA9" stroke-width="0.7349" d="M-48.619,485.635c24.206,13.297,46.261,27.715,69.111,28.806"/>
		<path fill="none" stroke="#E8BAA9" stroke-width="0.7349" d="M-48.557,487.794c25.068,12.97,44.451,28.265,70.024,29.367"/>
		<path fill="none" stroke="#E8BAA9" stroke-width="0.7349" d="M-48.492,489.95c25.928,12.646,42.641,28.814,70.935,29.934"/>
		<path fill="none" stroke="#E8BAA9" stroke-width="0.7349" d="M-48.427,492.106c26.785,12.321,40.829,29.37,71.845,30.501"/>
	</g>
	<g clip-path="url(#SVGID_2_)">
		<path fill="#FFFFFF" stroke="#1D1D1B" stroke-width="0.5" d="M34.693,525.324c33.739-1.142,45.114-19.063,72.759-31.059
			l0.572-19.422c-19.901,14.929-55.31,24.964-64.547,25.99"/>
		<path fill="none" stroke="#E8BAA9" stroke-width="0.7349" d="M107.959,477.003c-20.761,14.6-54.45,25.609-66.411,26.65"/>
		<path fill="none" stroke="#E8BAA9" stroke-width="0.7349" d="M107.897,479.159c-21.624,14.275-51.69,26.066-66.374,27.118"/>
		<path fill="none" stroke="#E8BAA9" stroke-width="0.7349" d="M107.833,481.316c-22.481,13.95-49.877,26.615-67.284,27.681"/>
		<path fill="none" stroke="#E8BAA9" stroke-width="0.7349" d="M107.771,483.476c-23.343,13.623-48.071,27.165-68.198,28.245"/>
		<path fill="none" stroke="#E8BAA9" stroke-width="0.7349" d="M107.706,485.635c-24.203,13.297-46.258,27.715-69.108,28.806"/>
		<path fill="none" stroke="#E8BAA9" stroke-width="0.7349" d="M107.644,487.794c-25.065,12.97-44.448,28.265-70.024,29.367"/>
		<path fill="none" stroke="#E8BAA9" stroke-width="0.7349" d="M107.579,489.95c-25.925,12.646-42.639,28.814-70.932,29.934"/>
		<path fill="none" stroke="#E8BAA9" stroke-width="0.7349" d="M107.517,492.106c-26.785,12.321-40.829,29.37-71.848,30.501"/>
	</g>
	
		<radialGradient id="SVGID_8_" cx="18.6123" cy="-954.1519" r="36.9833" gradientTransform="matrix(0.9395 0 0 0.6696 10.749 1109.379)" gradientUnits="userSpaceOnUse">
		<stop  offset="0" style="stop-color:#F6EBE6"/>
		<stop  offset="1" style="stop-color:#EE998E"/>
	</radialGradient>
	<path clip-path="url(#SVGID_2_)" fill="url(#SVGID_8_)" stroke="#1D1D1B" stroke-width="0.2873" d="M30.637,532.563
		c0-2.069-0.338-4.437-0.338-6.509c0-1.773,0.338-3.546,0.338-5.319c0-1.775,0-3.848,0-5.917c0-1.772-0.338-3.253-0.338-4.732
		c0-1.478-0.68-2.661-0.68-4.139c0-1.485,0-3.259,0.344-4.732c0.335-1.779,0.335-3.552,0.673-5.328
		c0.338-1.773,0.338-3.549,0.338-5.322c0.338-1.477,0.68-2.96,0.68-4.439c0.338-5.914,2.711-12.42,0.338-18.334
		c-0.338-0.888-0.679-2.072-1.018-2.96c-0.338-1.184-0.676-2.075-0.676-2.957c-0.271-0.708-0.324-1.602-0.68-2.385l-0.355-0.282
		c-2.081-1.215-3.033,2.667-3.033,4.739c0,1.184-0.676,1.772-1.015,2.957c-0.68,1.184-1.356,2.367-1.694,3.549
		c-0.341,1.184,0,2.365-0.341,3.549c-0.335,1.478-0.335,2.661-0.335,3.845c0,1.182,0.335,2.069,0.676,3.256
		c0.338,1.478,0.674,2.954,1.353,4.438c1.356,2.66,2.035,5.615,2.374,8.574c0.335,2.072,0,3.846,0,6.211
		c0,2.663,0.335,5.028,1.015,7.689c1.015,4.733,2.035,9.762,1.015,14.495c-0.335,2.364-0.335,4.735-0.335,7.095
		c0,4.144,0,8.581,0,12.722"/>
	<g clip-path="url(#SVGID_2_)">
		<path fill="#B1877B" stroke="#F0D1C5" stroke-width="0.5" d="M11.804,485.598c-0.631-0.194-1.263-0.096-1.919,0.683
			c0.22,0.121,0.462,0.239,0.682,0.363c0,0.048,0.048,0.096,0.121,0.073c0.048,0,0.096-0.051,0.096-0.099
			c-0.265,0.025-0.533,0.073-0.801,0.099c0.291-0.874,1.046-1.021,1.821-1.021c0.025,0,0.051-0.025,0.051-0.051
			C11.854,485.623,11.829,485.598,11.804,485.598L11.804,485.598z"/>
		<path fill="#B1877B" stroke="#F0D1C5" stroke-width="0.5" d="M12.314,384.958c0.973,0.341,1.92,0.704,2.893,1.046
			c0.048,0.022,0.07,0,0.096-0.023c0-0.048-0.025-0.076-0.048-0.099c-0.973-0.366-1.92-0.704-2.893-1.043
			c-0.022,0-0.073,0-0.073,0.048C12.266,384.91,12.289,384.958,12.314,384.958L12.314,384.958z"/>
		<path fill="#B1877B" stroke="#F0D1C5" stroke-width="0.5" d="M-70.18,385.477c5.61,1.533,10.639,6.706,10.492,12.682
			c-0.073,2.479-1.164,4.919-3.388,6.304c-2.405,1.493-5.283,0.183-7.141-1.714c-0.073-0.037-0.146-0.037-0.22,0.039
			c-0.037,0.07-0.037,0.144,0.037,0.217c1.895,2.114,4.846,3.425,7.617,1.784c2.622-1.566,3.569-4.735,3.425-7.504
			c-0.33-5.759-5.285-10.494-10.785-11.952c-0.037,0-0.073,0.037-0.073,0.037C-70.216,385.406-70.216,385.442-70.18,385.477
			L-70.18,385.477z"/>
		<path fill="#B1877B" stroke="#F0D1C5" stroke-width="0.5" d="M-76.265,398.269c2.624,2.038,6.122,3.462,7.176,6.993
			c0.256,0.841,0.403,1.751,0.146,2.515c-0.764,2.444-3.608,3.755-5.976,2.771c-0.073,0-0.146,0.036-0.18,0.146
			c0,0.07,0.034,0.144,0.144,0.144c2.514,1.313,5.248-0.29,6.049-2.478c1.748-4.919-3.572-8.054-7.286-10.165
			c-0.037-0.037-0.073-0.037-0.073,0C-76.301,398.231-76.301,398.269-76.265,398.269L-76.265,398.269z"/>
		<path fill="#B1877B" stroke="#F0D1C5" stroke-width="0.5" d="M-87.196,392.946c2.477,0.257,5.612,0.257,6.813-2.368
			c1.167-2.44,1.057-5.246,0.293-7.76c-1.314-4.082-4.519-6.997-7.833-9.475c-0.073-0.073-0.184-0.037-0.257,0.037
			c-0.037,0.073-0.037,0.146,0.037,0.22c5.102,3.642,9.874,9.471,7.833,16.214c-0.91,2.988-4.262,3.205-6.886,2.988
			c-0.037,0-0.073,0.036-0.073,0.07C-87.269,392.91-87.232,392.946-87.196,392.946L-87.196,392.946z"/>
		<path fill="#B1877B" stroke="#F0D1C5" stroke-width="0.5" d="M-64.934,413.462c5.356,1.604,8.601,8.088,7.397,13.443l-0.146,0.877
			l0.037-0.073l-0.51,0.547c-1.021,1.055-1.821,2.295-3.752,2.331l-1.858,0.073l0.107,0.037l-0.874-0.584h0.037l-0.254-0.474
			l-0.183,0.291l0.874,0.329l-0.11-0.073l0.547,0.874l-0.037-0.073l0.037,0.986l0.037-0.076l-0.254,0.657l0.144-0.11l-1.238,0.367
			c-3.571,0.58-5.903-2.515-7.396-5.286c-0.074-0.07-0.147-0.109-0.22-0.07c-0.07,0.034-0.107,0.144-0.07,0.217
			c1.491,2.515,3.425,5.613,6.703,5.613l2.332-0.474c0.073,0,0.11-0.073,0.146-0.11l0.217-0.693v-0.034l-0.034-1.022
			c0-0.037,0-0.074-0.037-0.074l-0.547-0.873c-0.037-0.037-0.037-0.073-0.11-0.107l-0.874-0.33c-0.037,0-0.073,0-0.146,0l0.22,0.511
			c0,0.036-0.037,0.036-0.073,0.073c-0.073,0.109-0.037,0.22,0.073,0.29l0.874,0.584c0.037,0.036,0.073,0.036,0.11,0.036
			l1.931-0.073c1.531,0.11,2.587-1.091,3.679-1.968l0.803-1.054c0-0.037,0.037-0.076,0.037-0.113l0.254-1.527
			c0.803-5.319-2.515-11.516-7.834-13.01c-0.037,0-0.073,0.037-0.073,0.037C-64.97,413.389-64.97,413.426-64.934,413.462
			L-64.934,413.462z"/>
		<path fill="#B1877B" stroke="#F0D1C5" stroke-width="0.5" d="M-64.57,449.606c6.266,0.729,10.933,6.086,11.226,12.172
			c0.181,3.679-2.078,7.65-6.014,8.344c-1.931,0.363-3.825-0.983-4.702-2.842c-0.037-0.073-0.11-0.109-0.181-0.073
			c-0.073,0.037-0.11,0.145-0.073,0.221c0.837,2.037,2.952,3.495,5.1,3.095c3.936-0.69,6.197-4.482,6.271-8.054
			c0.144-6.449-4.92-12.459-11.626-13.006c0,0-0.037,0.036-0.073,0.073C-64.643,449.536-64.606,449.572-64.57,449.606
			L-64.57,449.606z"/>
		<path fill="#B1877B" stroke="#F0D1C5" stroke-width="0.5" d="M-67.485,461.595c0,0,0,0,1.677,0.22c0,0,0,0-0.183,0.073
			c0,0,0,0,0.547,0.691c0,0,1.604,2.15,2.588,5.065c-1.24,2.551-2.734,5.575-6.596,5.393c-2.551-1.531-2.625-1.567-2.695-1.531
			c-0.037,0.073-0.073,0.146-0.037,0.257c0.073,0,2.622,1.857,6.376,1.857c1.785-2.771,3.425-5.285,2.515-8.527
			c-1.677-2.258-1.677-2.258-2.551-3.314v-0.037c0,0,0,0-1.457-0.51c0,0,0.18,0.254-0.11,0.183c-0.074,0.071-0.11,0.071-0.147,0.071
			c0,0.036,0,0.073,0.037,0.109C-67.485,461.595-67.485,461.595-67.485,461.595z"/>
		<path fill="#B1877B" stroke="#F0D1C5" stroke-width="0.5" d="M-68.432,474.678c4.299,0.727,8.127,5.063,8.197,9.435
			c0.073,2.918-1.421,6.522-4.846,6.67c-0.107,0-0.144,0.109-0.144,0.183c0.037,0.107,0.107,0.146,0.217,0.146
			c2.258,0.034,4.082-1.533,4.739-3.901c0.581-2.074,0.91-4.335-0.257-6.376c-1.711-3.024-4.045-5.866-7.87-6.303
			c-0.037,0-0.073,0.036-0.073,0.073C-68.505,474.641-68.468,474.678-68.432,474.678L-68.432,474.678z"/>
		<path fill="#B1877B" stroke="#F0D1C5" stroke-width="0.5" d="M-48.864,489.022c0.474,0.184,0.947,0.403,1.42,0.584l0.62,0.257
			l-0.037-0.037l0.583,0.837c0.837,1.312,0.51,2.988-0.547,4.119c0,0.073,0,0.146,0.074,0.146c0.037,0.033,0.11,0,0.146-0.037
			c0.837-0.767,0.947-1.787,1.057-2.808l-1.167-2.368c-0.037,0-0.037,0-0.037-0.036l-1.201-0.584v0.037
			c-0.293-0.073-0.547-0.181-0.84-0.254c-0.037,0-0.073,0.037-0.11,0.037C-48.901,488.952-48.864,488.989-48.864,489.022
			L-48.864,489.022z"/>
		<path fill="#B1877B" stroke="#F0D1C5" stroke-width="0.5" d="M-15.012,504.764c0,0,0,0,1.421,0c0,0,0,0-0.037,0
			c0,0,0,0,0.364,0.22c0,0,1.748,1.311,4.009,4.152c-2.004,2.044-2.041,2.077-2.041,2.188c0.073,0.036,0.11,0.073,0.183,0.036
			c0.037-0.036,2.148-1.784,0.037-4.592c-1.384-1.527-1.384-1.527-2.441-2.147h-0.037c-0.037,0-0.037,0-1.241,0c0,0-0.073,0-0.146,0
			c-0.07,0-0.107,0-0.144,0.033c0,0.04,0,0.076,0.037,0.11C-15.012,504.764-15.012,504.764-15.012,504.764z"/>
		<path fill="#B1877B" stroke="#F0D1C5" stroke-width="0.5" d="M-55.605,419.509c2.369,1.204,5.503,2.077,7.654-0.107
			c3.352-3.352,2.405-9.181-1.458-11.806c-0.073-0.073-0.183-0.073-0.256,0c-0.073,0.074-0.073,0.218,0,0.291
			c2.768,1.86,3.972,5.393,3.135,8.637c-1.057,4.189-5.686,4.81-9.038,2.878c-0.037-0.036-0.073,0-0.073,0.037
			C-55.678,419.473-55.642,419.509-55.605,419.509L-55.605,419.509z"/>
		<path fill="#B1877B" stroke="#F0D1C5" stroke-width="0.5" d="M-59.141,400.816c0.4,4.302,4.52,10.568,9.329,8.344
			c1.894-0.87,1.24-3.352,0.693-5.025c-1.24-3.828-4.008-9.511-8.892-8.49c-0.037,0-0.073,0.073-0.073,0.144
			c0,0.036,0.073,0.076,0.146,0.076c4.811-0.841,7.251,4.552,8.528,8.304c0.508,1.497,1.311,3.828-0.476,4.666
			c-4.589,2.258-8.709-3.825-9.146-8.054c0-0.034-0.037-0.07-0.073-0.034C-59.141,400.746-59.177,400.78-59.141,400.816
			L-59.141,400.816z"/>
		<path fill="#B1877B" stroke="#F0D1C5" stroke-width="0.5" d="M-47.734,397.102c0,0,0,0,0.437,1.13c0,0,0,0,0,0.037
			c0.037,0,0.037,0,0.547,0.728c0,0,0.4,0.256,0.803,0.474c0.4,0.256,0.4,0.256,1.127,0.399c0,0,0.037,0,0.073,0
			c0.037-0.036,0.037-0.036,0.801-0.653c0,0,0.22-0.438,0.437-0.911c0.22-0.439,0.256-0.51,0.22-0.547
			c-0.037-0.036-0.11-0.073-0.146-0.036c-0.037,0.036-0.037,0.036-0.037,0.036c-1.384,1.895-1.384,1.895-1.384,1.895
			c0.11-0.036,0.11-0.036,0.11-0.036c-1.311-0.364-1.311-0.364-1.311-0.364c-0.037,0-0.037,0-0.037,0
			c-1.021-1.094-1.021-1.094-1.021-1.094l0,0c-0.657-1.094-0.657-1.094-0.583-1.094c0.037-0.036,0.11-0.036,0.073-0.073
			c-0.037,0-0.073,0-0.11,0.037C-47.734,397.064-47.734,397.102-47.734,397.102z"/>
		<path fill="#B1877B" stroke="#F0D1C5" stroke-width="0.5" d="M-91.058,409.344c1.347,1.094,2.551,2.441,4.882,1.86l0.8-0.62
			c0.037,0,0.037-0.073,0.037-0.109l-0.037-0.728c-0.363-1.204-0.8-2.371-1.42-3.465c0-0.07-0.07-0.07-0.144-0.07
			c-0.037,0.034-0.073,0.107-0.037,0.144c0.254,0.511,0.474,1.058,0.728,1.567l0.693,2.552l0.037-0.073l-1.24,0.69
			c-1.638,0.183-3.095-0.69-4.226-1.821c-0.037-0.036-0.073-0.036-0.11,0C-91.094,409.308-91.094,409.344-91.058,409.344
			L-91.058,409.344z"/>
		<path fill="#B1877B" stroke="#F0D1C5" stroke-width="0.5" d="M-105.524,370.319c1.567,1.567,3.828,1.86,5.903,1.35l0.729-0.474
			c0.037-0.039,0.073-0.073,0.073-0.109l-0.037-1.567c-0.803-1.53-1.457-3.135-2.44-4.556c-0.037-0.073-0.11-0.073-0.146-0.036
			c-0.073,0-0.073,0.073-0.037,0.146c0.547,0.874,1.021,1.784,1.457,2.731l0.947,3.281l0.037-0.11l-1.93,0.693
			c-1.531,0.291-3.025-0.293-4.482-1.496c-0.037,0-0.073,0-0.11,0.036C-105.598,370.249-105.561,370.285-105.524,370.319
			L-105.524,370.319z"/>
		<path fill="#B1877B" stroke="#F0D1C5" stroke-width="0.5" d="M7.967,383.621c-5.781-0.484-11.563-0.749-17.223-2.137
			c-0.025,0-0.074-0.048-0.048-0.096c0-0.025,0.048-0.073,0.096-0.048c5.683,1.237,11.417,1.627,17.198,2.188
			c0.025,0,0.048,0.02,0.048,0.045C8.038,383.621,8.015,383.646,7.967,383.621L7.967,383.621z"/>
		<path fill="#B1877B" stroke="#F0D1C5" stroke-width="0.5" d="M-13.386,380.515c-5.051,1.091-9.886-1.798-14.625-3.354
			c-1.189-0.389-2.427-0.484-3.62-0.848c-8.256-2.552-15.789-6.219-23.49-9.815c-0.071-0.023-0.097-0.097-0.048-0.147
			c0.025-0.07,0.099-0.096,0.147-0.048c6.898,3.183,13.725,6.365,20.964,8.917c4.324,1.53,8.623,2.72,12.995,4.25
			c2.356,0.826,5.125,1.627,7.653,0.947c0.022-0.022,0.045,0,0.07,0.022C-13.338,380.467-13.338,380.515-13.386,380.515
			L-13.386,380.515z"/>
		<path fill="#B1877B" stroke="#F0D1C5" stroke-width="0.5" d="M-60.463,363.413c-6.56-2.769-11.295-7.798-17.102-12.146
			c-6.703-5.029-10.663-11.856-16.372-17.515c-0.048-0.051-0.048-0.099,0-0.146c0.025-0.025,0.096-0.025,0.121,0
			c7.068,6.924,12.147,15.304,21.06,20.941c2.625,1.649,4.566,3.741,7.118,5.61c1.7,1.263,3.352,2.331,5.249,3.157
			c0.023,0,0.023,0.051,0.023,0.073C-60.39,363.413-60.415,363.436-60.463,363.413L-60.463,363.413z"/>
		<path fill="#B1877B" stroke="#F0D1C5" stroke-width="0.5" d="M-97.313,330.908c-5.612-6.314-10.493-12.874-15.06-20.355
			c-1.579-2.576-3.741-4.42-5.393-7.044c-2.089-3.353-3.935-6.56-5.223-10.18c-0.023-0.096,0-0.169,0.099-0.217
			c0.073-0.025,0.169,0,0.194,0.073c2.526,6.024,5.83,11.755,10.371,16.516c4.229,7.603,9.62,14.431,15.108,21.137
			c0.025,0.022,0.025,0.07,0,0.096C-97.266,330.959-97.288,330.959-97.313,330.908L-97.313,330.908z"/>
		<path fill="#B1877B" stroke="#F0D1C5" stroke-width="0.5" d="M-124.616,290.392c-1.362-3.718-4.13-6.585-5.928-10.131
			c-1.847-3.715-2.938-7.603-4.226-11.563c-2.066-6.241-4.739-12.097-5.003-18.729c-0.099-2.331-0.899-4.566-1.46-6.85
			c-0.022-0.048,0.025-0.121,0.073-0.121c0.051-0.025,0.099,0.025,0.121,0.073c1.652,4.809,1.872,9.886,2.65,14.867
			c4.299,9.593,5.537,20.087,12.268,28.978c0.8,1.046,0.97,2.334,1.626,3.426c0,0.024,0,0.073-0.022,0.073
			C-124.568,290.44-124.59,290.415-124.616,290.392L-124.616,290.392z"/>
		<path fill="#B1877B" stroke="#F0D1C5" stroke-width="0.5" d="M-0.656,385.809c-4.082-0.898-8.138-0.048-12.318-0.803
			c-2.717-0.485-4.93-2.038-7.625-2.501c-5.638-0.995-10.785-2.5-16.057-4.178c-0.099-0.025-0.121-0.099-0.099-0.169
			c0.025-0.076,0.099-0.124,0.169-0.096c5.08,1.43,10.01,3.18,15.403,3.933c3.23,0.487,5.902,2.599,9.107,2.866
			c3.839,0.316,7.676,0.124,11.442,0.826c0.025,0,0.048,0.048,0.048,0.073S-0.633,385.809-0.656,385.809L-0.656,385.809z"/>
		<path fill="#B1877B" stroke="#F0D1C5" stroke-width="0.5" d="M-41.395,375.85c-7.044-0.558-12.533-4.859-18.558-8.623
			c-4.302-2.649-8.625-4.496-12.415-7.749c-4.687-4.034-8.67-8.333-13.261-12.293c-0.048-0.022-0.048-0.096-0.025-0.144
			c0.025-0.025,0.099-0.049,0.146-0.025c3.766,3.402,7.506,6.681,11.246,10.252c7.335,6.971,16.226,10.616,24.949,16.13
			c2.43,1.553,5.198,1.821,7.943,2.354c0.048,0,0.048,0.025,0.048,0.073C-41.321,375.85-41.369,375.875-41.395,375.85
			L-41.395,375.85z"/>
		<path fill="#B1877B" stroke="#F0D1C5" stroke-width="0.5" d="M-89.005,343.884c-3.668-4.4-7.604-8.311-12.122-12.124
			c-3.862-3.23-5.854-7.555-8.38-11.879c-2.309-3.983-5.612-6.972-8.259-10.591c-0.022-0.048-0.022-0.121,0.025-0.146
			c0.048-0.048,0.121-0.048,0.146,0c1.917,2.649,4.2,4.786,6.241,7.481c3.597,4.665,5.223,10.058,9.521,14.041
			c4.614,4.299,9.207,8.16,12.925,13.145c0.022,0.022,0.022,0.073,0,0.096C-88.932,343.906-88.98,343.906-89.005,343.884
			L-89.005,343.884z"/>
		<path fill="#B1877B" stroke="#F0D1C5" stroke-width="0.5" d="M-121.022,305.087c-4.468-7.918-7.943-16.082-12.705-24.169
			c-3.96-6.681-5.294-13.847-7.555-20.939c-0.022-0.051,0-0.099,0.048-0.121c0.051-0.025,0.124,0,0.146,0.048
			c1.215,3.109,1.847,6.365,2.867,9.545c4.104,12.73,11.78,23.589,17.296,35.589c0.023,0.022,0,0.048-0.025,0.073
			C-120.971,305.135-121.022,305.135-121.022,305.087L-121.022,305.087z"/>
		<path fill="#B1877B" stroke="#F0D1C5" stroke-width="0.5" d="M-113.49,324.157c-5.297-7.605-10.763-15.036-14.213-23.806
			c-0.727-1.799-2.306-3.087-2.988-4.956c0-0.073,0.025-0.121,0.073-0.146c0.073-0.025,0.146,0,0.172,0.073
			c2.937,4.493,4.857,9.376,7.481,14.162c2.819,5.198,6.292,9.765,9.57,14.574c0.025,0.051,0.025,0.073,0,0.099
			C-113.442,324.183-113.467,324.183-113.49,324.157L-113.49,324.157z"/>
		<path fill="#B1877B" stroke="#F0D1C5" stroke-width="0.5" d="M-77.638,358.677c-0.778-0.51-1.432-1.215-2.258-1.629
			c-10.542-5.198-15.96-15.814-24.608-23.053c-0.048-0.048-0.073-0.122-0.025-0.172c0.051-0.049,0.146-0.071,0.197-0.023
			c8.718,6.803,13.649,17.565,23.949,22.712c1.046,0.536,1.847,1.41,2.819,2.066c0.025,0.022,0.025,0.048,0,0.073
			C-77.564,358.677-77.612,358.699-77.638,358.677L-77.638,358.677z"/>
		<path fill="#B1877B" stroke="#F0D1C5" stroke-width="0.5" d="M-26.139,384.399c-2.867-0.121-5.66-0.363-8.501-1.142
			c-3.766-1.021-6.656-3.374-10.154-4.832c-5.223-2.164-10.349-4.301-15.257-7.021c-0.073-0.048-0.099-0.121-0.048-0.194
			c0.022-0.073,0.121-0.099,0.194-0.073c4.957,2.624,10.13,4.592,15.184,7.143c5.951,2.988,11.854,6.072,18.582,6.024
			c0.025,0,0.048,0.025,0.048,0.048C-26.09,384.377-26.113,384.399-26.139,384.399L-26.139,384.399z"/>
		<path fill="#B1877B" stroke="#F0D1C5" stroke-width="0.5" d="M-12.146,130.236c-5.855-0.437-11.49,0.777-17.201,1.944
			c-8.623-0.826-17.147,1.773-25.238,4.615c-0.048,0.025-0.099,0-0.121-0.048c-0.025-0.074,0-0.122,0.073-0.147
			c8.234-3.205,17.026-5.491,25.895-4.809c5.466-1.36,10.954-2.209,16.592-1.699c0.022,0,0.048,0.048,0.048,0.07
			C-12.098,130.188-12.123,130.236-12.146,130.236L-12.146,130.236z"/>
		<path fill="#B1877B" stroke="#F0D1C5" stroke-width="0.5" d="M-61.655,137.768c-1.021,0.389-2.016,0.874-3.084,0.922
			c-6.39,0.293-11.9,3.209-18.169,4.714c-5.271,1.263-10.422,2.063-15.084,4.713c-0.025,0.022-0.051,0.022-0.073,0
			c-0.025-0.048,0-0.073,0.022-0.099c4.35-2.599,9.28-3.352,14.235-4.64c6.464-1.7,12.34-4.641,19.021-4.883
			c1.068-0.022,2.089-0.485,3.109-0.849c0.022,0,0.048,0,0.07,0.048C-61.607,137.72-61.607,137.742-61.655,137.768L-61.655,137.768z
			"/>
		<path fill="#B1877B" stroke="#F0D1C5" stroke-width="0.5" d="M-102.294,150.738c-7.503,4.107-14.742,8.6-20.329,15.476
			c-3.622,4.468-6.049,9.424-8.843,14.28c-0.025,0.051-0.099,0.073-0.146,0.051c-0.048-0.051-0.073-0.121-0.048-0.172
			c2.185-4.566,4.688-8.671,7.701-12.97c5.587-7.944,13.432-12.583,21.617-16.761c0.025-0.023,0.048-0.023,0.073,0.025
			C-102.243,150.69-102.269,150.716-102.294,150.738L-102.294,150.738z"/>
		<path fill="#B1877B" stroke="#F0D1C5" stroke-width="0.5" d="M-133.29,184.213c-3.253,6.56-4.71,13.626-5.537,20.963
			c-1.02,8.914-2.235,17.636-2.576,26.526c0,0.049-0.048,0.097-0.096,0.097c-0.05,0-0.099-0.048-0.099-0.097
			c-0.242-6.486,0.558-12.826,1.435-19.313c0.801-5.73,1.164-11.148,2.43-16.93c0.896-4.057,2.354-7.727,4.347-11.295
			c0-0.025,0.048-0.048,0.074-0.025C-133.29,184.14-133.264,184.188-133.29,184.213L-133.29,184.213z"/>
		<path fill="#B1877B" stroke="#F0D1C5" stroke-width="0.5" d="M-142.203,205.346c-0.364,1.313-0.657,2.599-0.899,3.96
			c-0.947,5.15-0.025,10.032-0.048,15.011c-0.048,5.492-0.924,11.006-0.803,16.52c0.099,4.859,1.582,9.5,2.503,14.258
			c0,0.073-0.048,0.146-0.122,0.172c-0.099,0-0.169-0.048-0.169-0.146c-1.071-4.566-2.356-9.06-2.599-13.773
			c-0.315-6.049,1.021-12,0.753-18.024c-0.293-6.05-0.73-12.194,1.237-18.001c0.025-0.049,0.048-0.071,0.099-0.049
			C-142.229,205.271-142.203,205.32-142.203,205.346L-142.203,205.346z"/>
		<path fill="#B1877B" stroke="#F0D1C5" stroke-width="0.5" d="M-146.259,220.892c-0.146,4.713-1.094,9.379-1.094,14.066
			c0.025,5.537,0.922,11.003,1.942,16.469c0.025,0.051-0.022,0.099-0.073,0.099c-0.048,0-0.096-0.025-0.096-0.073
			c-1.215-5.44-2.137-10.957-2.137-16.52c0.022-4.688,0.995-9.354,1.336-14.063c0-0.025,0.048-0.051,0.074-0.051
			C-146.285,220.818-146.259,220.844-146.259,220.892L-146.259,220.892z"/>
		<path fill="#B1877B" stroke="#F0D1C5" stroke-width="0.5" d="M-135.111,286.578c-1.336-5.66-4.662-10.47-6.486-16.009
			c-0.775-2.331-1.384-4.64-2.43-6.85c-0.048-0.051-0.022-0.121,0.051-0.146c0.048-0.025,0.121,0,0.144,0.048
			c2.599,7.8,6.585,15.039,8.843,22.932c0,0.025,0,0.048-0.048,0.073C-135.063,286.626-135.085,286.626-135.111,286.578
			L-135.111,286.578z"/>
		<path fill="#B1877B" stroke="#F0D1C5" stroke-width="0.5" d="M-124.131,164.804c-2.794,1.822-4.931,4.517-6.633,7.435
			c-2.232,3.861-3.495,7.797-5.877,11.684c-3.279,5.393-3.352,11.586-5.246,17.342c-0.025,0.073-0.099,0.121-0.172,0.099
			c-0.071-0.025-0.122-0.099-0.096-0.169c1.336-4.544,1.92-9.206,3.451-13.75c1.311-3.888,4.005-6.924,5.514-10.689
			c0.657-1.627,1.021-3.278,2.063-4.761c2.041-2.816,4.034-5.537,6.923-7.288c0.051-0.022,0.074,0,0.099,0.025
			C-124.105,164.756-124.105,164.804-124.131,164.804L-124.131,164.804z"/>
		<path fill="#B1877B" stroke="#F0D1C5" stroke-width="0.5" d="M-139.435,186.082c-4.834,8.964-4.905,19.238-6.292,29.076
			c-0.022,0.073-0.07,0.124-0.144,0.099c-0.073,0-0.124-0.073-0.099-0.122c1.215-9.886,1.314-20.258,6.438-29.124
			c0.022-0.025,0.048-0.025,0.096,0C-139.41,186.033-139.41,186.059-139.435,186.082L-139.435,186.082z"/>
		<path fill="#B1877B" stroke="#F0D1C5" stroke-width="0.5" d="M-77.127,138.374c-3.62,1.116-7.166,2.382-10.979,2.746
			c-7.335,3.256-14.503,6.244-21.547,10.737c-1.457,0.947-2.768,2.063-3.814,3.473c-0.022,0.025-0.07,0.025-0.096,0
			s-0.025-0.073,0-0.121c1.068-1.384,2.356-2.503,3.814-3.498c6.897-4.663,13.698-7.992,21.279-10.518
			c3.714-1.241,7.528-1.847,11.32-2.916c0.022-0.025,0.07,0,0.07,0.048C-77.08,138.349-77.102,138.374-77.127,138.374
			L-77.127,138.374z"/>
		<path fill="#B1877B" stroke="#F0D1C5" stroke-width="0.5" d="M-106.956,147.243c-0.899,0.338-1.725,0.801-2.525,1.407
			c-6.974,5.345-12.803,10.81-19.022,16.809c-4.155,3.986-6.875,8.939-9.522,13.945c-0.025,0.048-0.073,0.073-0.121,0.048
			s-0.073-0.073-0.048-0.121c2.962-5.854,6.244-11.515,11.318-15.961c5.854-5.15,10.835-10.201,17.322-14.863
			c0.826-0.583,1.626-1.046,2.55-1.362c0.023-0.025,0.048,0,0.071,0.025C-106.908,147.192-106.934,147.217-106.956,147.243
			L-106.956,147.243z"/>
		<path fill="#B1877B" stroke="#F0D1C5" stroke-width="0.5" d="M-34.787,129.289c-4.299-0.848-8.403,0.705-12.412,2.114
			c-2.478,0.851-4.688,2.258-7.313,2.625c-6.293,0.826-12.39,1.043-18.293,3.182c-0.122,0.023-0.22-0.051-0.243-0.146
			c-0.025-0.099,0.048-0.217,0.144-0.242c6.39-2.456,13.24-1.847,19.875-3.693c6.046-1.677,11.876-5.197,18.267-3.96
			c0.022,0,0.048,0.048,0.048,0.073S-34.761,129.289-34.787,129.289L-34.787,129.289z"/>
		<path fill="#B1877B" stroke="#F0D1C5" stroke-width="0.5" d="M-7.19,122.439c-1.556-0.389-3.134-0.485-4.716-0.217
			c-1.844,0.316-3.543,0.022-5.319,0.195c-3.084,0.313-5.731,1.722-8.817,2.258c-7.166,1.288-14.016,0.29-20.939,2.5
			c-1.553,0.487-3.23,0.583-4.857,0.708c-0.099,0-0.169-0.051-0.169-0.147c-0.025-0.073,0.048-0.172,0.121-0.172
			c3.763-0.412,7.287-1.528,11.075-2.137c6.681-1.043,13.241-0.169,19.724-2.427c4.397-1.508,9.305-1.362,13.919-0.657
			c0.025,0,0.048,0.023,0.048,0.074C-7.119,122.439-7.167,122.465-7.19,122.439L-7.19,122.439z"/>
		<path fill="#B1877B" stroke="#F0D1C5" stroke-width="0.5" d="M-59.177,129.605c-2.599,0.946-5.345,0.389-8.04,1.093
			c-6.56,1.652-11.83,5.054-18.581,6.486c-3.16,0.68-5.782,2.114-8.576,3.621c-1.142,0.606-2.478,0.558-3.619,1.164
			c-0.073,0.051-0.147,0-0.172-0.07c-0.048-0.074,0-0.147,0.074-0.172c1.119-0.581,2.404-0.705,3.523-1.285
			c2.625-1.41,5.103-2.772,7.992-3.426c6.413-1.483,11.731-4.324,17.806-6.34c3.157-1.045,6.436-0.34,9.57-1.191
			c0.048-0.022,0.07,0,0.096,0.051C-59.104,129.557-59.129,129.605-59.177,129.605L-59.177,129.605z"/>
		<path fill="#B1877B" stroke="#F0D1C5" stroke-width="0.5" d="M-28.751,127.564c4.922-1.201,9.911-0.07,14.87-0.69
			c2.875-0.364,5.72-1.204,8.634-0.693c0.11,0,0.18-0.037,0.217-0.144c0-0.073-0.073-0.146-0.144-0.183
			c-3.171-0.947-6.232,0.693-9.328,0.764c-4.812,0.11-9.548-0.364-14.283,0.803c-0.037,0.037-0.037,0.037-0.037,0.073
			S-28.785,127.564-28.751,127.564L-28.751,127.564z"/>
		<path fill="#B1877B" stroke="#F0D1C5" stroke-width="0.5" d="M-3.937,121.154c3.318-0.33,6.633-0.403,9.912-0.913
			c0.073,0,0.11-0.071,0.11-0.144c-0.037-0.073-0.11-0.11-0.183-0.11c-3.279,0.327-6.557,0.62-9.838,1.021
			c-0.037,0-0.073,0.037-0.073,0.073C-4.01,121.114-3.974,121.154-3.937,121.154L-3.937,121.154z"/>
		<path fill="#B1877B" stroke="#F0D1C5" stroke-width="0.5" d="M5.926,494.782c0,0,0,0-0.606,0.558c0,0,0,0.025-0.025,0.025
			c0,0.022-0.025,0.07,0.025,0.118c0.045,0.025,0.045,0.025,0.629,0.172c0,0,0.708-0.048,1.387-0.073
			c0.679-0.242,0.727-0.242,0.752-0.293c0-0.045,0-0.096-0.05-0.144c-0.071,0-0.533,0.073-1.018,0.144
			c-0.462,0.076-0.462,0.076-1.604,0.028c0,0,0,0,0.048,0.144c0,0,0,0,0.414-0.631c0,0,0.048,0.025,0.096,0.025
			c0.048,0.022,0.073,0,0.073-0.048c-0.025-0.051-0.048-0.073-0.099-0.073C5.926,494.782,5.926,494.782,5.926,494.782z"/>
		<path fill="#B1877B" stroke="#F0D1C5" stroke-width="0.5" d="M48.094,489.868c0.843,0.342,1.81,0.353,2.543,0.967l0.113,0.147
			c0.011,0.011,0.025,0.022,0.025,0.048c0,0.036-0.025,0.073-0.062,0.084l-0.136,0.015c-0.527-0.088-1.04-0.209-1.556-0.308
			c-0.034-0.012-0.073-0.048-0.06-0.085c0.011-0.036,0.037-0.062,0.085-0.051c0.392,0.063,0.784,0.136,1.175,0.221l0.465,0.062
			h-0.023l-0.369-0.194l0.011-0.012c-0.722-0.357-1.491-0.541-2.241-0.822c-0.023,0-0.034-0.023-0.023-0.049
			C48.043,489.868,48.066,489.854,48.094,489.868L48.094,489.868z"/>
		<path fill="#B1877B" stroke="#F0D1C5" stroke-width="0.5" d="M66.885,497.542c0,0,0,0-1.421,0c0,0,0,0,0.037,0c0,0,0,0-0.364,0.22
			c0,0-1.75,1.311-4.008,4.152c2.004,2.04,2.041,2.077,2.041,2.185c-0.073,0.036-0.11,0.076-0.183,0.036
			c-0.037-0.036-2.151-1.784-0.037-4.589c1.384-1.531,1.384-1.531,2.441-2.151h0.037c0.037,0,0.037,0,1.237,0c0,0,0.074,0,0.147,0
			s0.11,0,0.146,0.037c0,0.036,0,0.073-0.037,0.11C66.885,497.542,66.885,497.542,66.885,497.542z"/>
		<path fill="#B1877B" stroke="#F0D1C5" stroke-width="0.5" d="M43.905,383.621c5.782-0.484,11.563-0.749,17.224-2.137
			c0.025,0,0.073-0.048,0.048-0.096c0-0.025-0.048-0.073-0.099-0.048c-5.683,1.237-11.417,1.627-17.195,2.188
			c-0.025,0-0.051,0.02-0.051,0.045C43.832,383.621,43.857,383.646,43.905,383.621L43.905,383.621z"/>
		<path fill="#B1877B" stroke="#F0D1C5" stroke-width="0.5" d="M65.256,380.515c5.054,1.091,9.889-1.798,14.627-3.354
			c1.187-0.389,2.427-0.484,3.616-0.848c8.262-2.552,15.789-6.219,23.49-9.815c0.076-0.023,0.096-0.097,0.048-0.147
			c-0.022-0.07-0.096-0.096-0.144-0.048c-6.897,3.183-13.725,6.365-20.964,8.917c-4.324,1.53-8.623,2.72-12.995,4.25
			c-2.359,0.826-5.127,1.627-7.653,0.947c-0.025-0.022-0.048,0-0.073,0.022C65.208,380.467,65.208,380.515,65.256,380.515
			L65.256,380.515z"/>
		<path fill="#B1877B" stroke="#F0D1C5" stroke-width="0.5" d="M112.334,363.413c6.557-2.769,11.295-7.798,17.103-12.146
			c6.703-5.029,10.664-11.856,16.372-17.515c0.048-0.051,0.048-0.099,0-0.146c-0.025-0.025-0.099-0.025-0.121,0
			c-7.07,6.924-12.146,15.304-21.06,20.941c-2.625,1.649-4.569,3.741-7.118,5.61c-1.7,1.263-3.354,2.331-5.249,3.157
			c-0.022,0-0.022,0.051-0.022,0.073C112.261,363.413,112.286,363.436,112.334,363.413L112.334,363.413z"/>
		<path fill="#B1877B" stroke="#F0D1C5" stroke-width="0.5" d="M149.186,330.908c5.612-6.314,10.492-12.874,15.059-20.355
			c1.579-2.576,3.743-4.42,5.396-7.044c2.086-3.353,3.933-6.56,5.221-10.18c0.025-0.096,0-0.169-0.096-0.217
			c-0.073-0.025-0.172,0-0.194,0.073c-2.526,6.024-5.83,11.755-10.374,16.516c-4.226,7.603-9.618,14.431-15.109,21.137
			c-0.025,0.022-0.025,0.07,0,0.096C149.135,330.959,149.16,330.959,149.186,330.908L149.186,330.908z"/>
		<path fill="#B1877B" stroke="#F0D1C5" stroke-width="0.5" d="M176.486,290.392c1.362-3.718,4.13-6.585,5.929-10.131
			c1.846-3.715,2.939-7.603,4.229-11.563c2.063-6.241,4.735-12.097,5.003-18.729c0.096-2.331,0.899-4.566,1.458-6.85
			c0.025-0.048-0.025-0.121-0.073-0.121c-0.049-0.025-0.099,0.025-0.122,0.073c-1.651,4.809-1.871,9.886-2.646,14.867
			c-4.302,9.593-5.539,20.087-12.271,28.978c-0.801,1.046-0.967,2.334-1.624,3.426c0,0.024,0,0.073,0.022,0.073
			C176.438,290.44,176.464,290.415,176.486,290.392L176.486,290.392z"/>
		<path fill="#B1877B" stroke="#F0D1C5" stroke-width="0.5" d="M52.528,385.809c4.082-0.898,8.138-0.048,12.316-0.803
			c2.723-0.485,4.93-2.038,7.628-2.501c5.635-0.995,10.785-2.5,16.057-4.178c0.099-0.025,0.121-0.099,0.099-0.169
			c-0.025-0.076-0.099-0.124-0.172-0.096c-5.074,1.43-10.01,3.18-15.4,3.933c-3.23,0.487-5.906,2.599-9.111,2.866
			c-3.836,0.316-7.676,0.124-11.442,0.826c-0.022,0-0.048,0.048-0.048,0.073S52.503,385.809,52.528,385.809L52.528,385.809z"/>
		<path fill="#B1877B" stroke="#F0D1C5" stroke-width="0.5" d="M93.267,375.85c7.042-0.558,12.533-4.859,18.557-8.623
			c4.299-2.649,8.623-4.496,12.414-7.749c4.688-4.034,8.671-8.333,13.263-12.293c0.048-0.022,0.048-0.096,0.025-0.144
			c-0.025-0.025-0.099-0.049-0.147-0.025c-3.766,3.402-7.506,6.681-11.247,10.252c-7.335,6.971-16.229,10.616-24.95,16.13
			c-2.427,1.553-5.195,1.821-7.943,2.354c-0.048,0-0.048,0.025-0.048,0.073C93.191,375.85,93.239,375.875,93.267,375.85
			L93.267,375.85z"/>
		<path fill="#B1877B" stroke="#F0D1C5" stroke-width="0.5" d="M140.878,343.884c3.668-4.4,7.603-8.311,12.119-12.124
			c3.864-3.23,5.857-7.555,8.38-11.879c2.31-3.983,5.613-6.972,8.263-10.591c0.022-0.048,0.022-0.121-0.025-0.146
			c-0.051-0.048-0.121-0.048-0.146,0c-1.917,2.649-4.203,4.786-6.241,7.481c-3.597,4.665-5.224,10.058-9.522,14.041
			c-4.617,4.299-9.206,8.16-12.925,13.145c-0.025,0.022-0.025,0.073,0,0.096C140.805,343.906,140.853,343.906,140.878,343.884
			L140.878,343.884z"/>
		<path fill="#B1877B" stroke="#F0D1C5" stroke-width="0.5" d="M172.893,305.087c4.471-7.918,7.943-16.082,12.705-24.169
			c3.96-6.681,5.294-13.847,7.555-20.939c0.025-0.051,0-0.099-0.048-0.121c-0.048-0.025-0.122,0-0.147,0.048
			c-1.215,3.109-1.846,6.365-2.866,9.545c-4.104,12.73-11.78,23.589-17.294,35.589c-0.025,0.022,0,0.048,0.022,0.073
			C172.845,305.135,172.893,305.135,172.893,305.087L172.893,305.087z"/>
		<path fill="#B1877B" stroke="#F0D1C5" stroke-width="0.5" d="M165.363,324.157c5.294-7.605,10.76-15.036,14.213-23.806
			c0.728-1.799,2.306-3.087,2.985-4.956c0-0.073-0.022-0.121-0.07-0.146c-0.076-0.025-0.146,0-0.172,0.073
			c-2.94,4.493-4.857,9.376-7.481,14.162c-2.819,5.198-6.292,9.765-9.573,14.574c-0.022,0.051-0.022,0.073,0,0.099
			C165.313,324.183,165.338,324.183,165.363,324.157L165.363,324.157z"/>
		<path fill="#B1877B" stroke="#F0D1C5" stroke-width="0.5" d="M129.51,358.677c0.775-0.51,1.432-1.215,2.258-1.629
			c10.543-5.198,15.961-15.814,24.606-23.053c0.048-0.048,0.073-0.122,0.025-0.172c-0.048-0.049-0.144-0.071-0.194-0.023
			c-8.722,6.803-13.652,17.565-23.95,22.712c-1.046,0.536-1.849,1.41-2.819,2.066c-0.025,0.022-0.025,0.048,0,0.073
			C129.437,358.677,129.484,358.699,129.51,358.677L129.51,358.677z"/>
		<path fill="#B1877B" stroke="#F0D1C5" stroke-width="0.5" d="M78.011,384.399c2.867-0.121,5.661-0.363,8.502-1.142
			c3.763-1.021,6.655-3.374,10.151-4.832c5.226-2.164,10.351-4.301,15.259-7.021c0.073-0.048,0.096-0.121,0.045-0.194
			c-0.02-0.073-0.118-0.099-0.192-0.073c-4.956,2.624-10.128,4.592-15.182,7.143c-5.951,2.988-11.854,6.072-18.583,6.024
			c-0.025,0-0.048,0.025-0.048,0.048C77.963,384.377,77.986,384.399,78.011,384.399L78.011,384.399z"/>
		<path fill="#B1877B" stroke="#F0D1C5" stroke-width="0.5" d="M64.019,130.236c5.854-0.437,11.492,0.777,17.198,1.944
			c8.623-0.826,17.15,1.773,25.241,4.615c0.048,0.025,0.096,0,0.121-0.048c0.022-0.074,0-0.122-0.073-0.147
			c-8.237-3.205-17.029-5.491-25.895-4.809c-5.466-1.36-10.957-2.209-16.592-1.699c-0.023,0-0.048,0.048-0.048,0.07
			C63.97,130.188,63.996,130.236,64.019,130.236L64.019,130.236z"/>
		<path fill="#B1877B" stroke="#F0D1C5" stroke-width="0.5" d="M113.524,137.768c1.023,0.389,2.016,0.874,3.086,0.922
			c6.388,0.293,11.901,3.209,18.168,4.714c5.274,1.263,10.422,2.063,15.087,4.713c0.025,0.022,0.051,0.022,0.073,0
			c0.025-0.048,0-0.073-0.022-0.099c-4.35-2.599-9.28-3.352-14.236-4.64c-6.463-1.7-12.341-4.641-19.022-4.883
			c-1.068-0.022-2.088-0.485-3.109-0.849c-0.025,0-0.048,0-0.073,0.048C113.476,137.72,113.476,137.742,113.524,137.768
			L113.524,137.768z"/>
		<path fill="#B1877B" stroke="#F0D1C5" stroke-width="0.5" d="M154.164,150.738c7.507,4.107,14.745,8.6,20.332,15.476
			c3.62,4.468,6.047,9.424,8.844,14.28c0.022,0.051,0.099,0.073,0.146,0.051c0.045-0.051,0.07-0.121,0.045-0.172
			c-2.185-4.566-4.686-8.671-7.698-12.97c-5.587-7.944-13.436-12.583-21.618-16.761c-0.025-0.023-0.051-0.023-0.073,0.025
			C154.116,150.69,154.142,150.716,154.164,150.738L154.164,150.738z"/>
		<path fill="#B1877B" stroke="#F0D1C5" stroke-width="0.5" d="M185.16,184.213c3.256,6.56,4.714,13.626,5.539,20.963
			c1.021,8.914,2.233,17.636,2.577,26.526c0,0.049,0.048,0.097,0.096,0.097s0.096-0.048,0.096-0.097
			c0.245-6.486-0.559-12.826-1.432-19.313c-0.801-5.73-1.165-11.148-2.431-16.93c-0.898-4.057-2.356-7.727-4.347-11.295
			c0-0.025-0.051-0.048-0.073-0.025C185.16,184.14,185.135,184.188,185.16,184.213L185.16,184.213z"/>
		<path fill="#B1877B" stroke="#F0D1C5" stroke-width="0.5" d="M194.076,205.346c0.364,1.313,0.657,2.599,0.896,3.96
			c0.947,5.15,0.025,10.032,0.051,15.011c0.048,5.492,0.922,11.006,0.801,16.52c-0.096,4.859-1.578,9.5-2.5,14.258
			c0,0.073,0.048,0.146,0.118,0.172c0.099,0,0.172-0.048,0.172-0.146c1.068-4.566,2.356-9.06,2.597-13.773
			c0.318-6.049-1.018-12-0.75-18.024c0.29-6.05,0.729-12.194-1.237-18.001c-0.025-0.049-0.051-0.071-0.099-0.049
			C194.1,205.271,194.076,205.32,194.076,205.346L194.076,205.346z"/>
		<path fill="#B1877B" stroke="#F0D1C5" stroke-width="0.5" d="M198.133,220.892c0.144,4.713,1.091,9.379,1.091,14.066
			c-0.022,5.537-0.922,11.003-1.939,16.469c-0.028,0.051,0.021,0.099,0.071,0.099c0.048,0,0.096-0.025,0.096-0.073
			c1.215-5.44,2.14-10.957,2.14-16.52c-0.025-4.688-0.995-9.354-1.337-14.063c0-0.025-0.048-0.051-0.073-0.051
			C198.158,220.818,198.133,220.844,198.133,220.892L198.133,220.892z"/>
		<path fill="#B1877B" stroke="#F0D1C5" stroke-width="0.5" d="M186.981,286.578c1.339-5.66,4.665-10.47,6.486-16.009
			c0.778-2.331,1.384-4.64,2.43-6.85c0.048-0.051,0.022-0.121-0.051-0.146c-0.048-0.025-0.118,0-0.144,0.048
			c-2.599,7.8-6.582,15.039-8.84,22.932c0,0.025,0,0.048,0.048,0.073C186.934,286.626,186.959,286.626,186.981,286.578
			L186.981,286.578z"/>
		<path fill="#B1877B" stroke="#F0D1C5" stroke-width="0.5" d="M176.005,164.804c2.79,1.822,4.93,4.517,6.63,7.435
			c2.232,3.861,3.498,7.797,5.877,11.684c3.278,5.393,3.354,11.586,5.249,17.342c0.025,0.073,0.096,0.121,0.169,0.099
			c0.073-0.025,0.121-0.099,0.096-0.169c-1.333-4.544-1.916-9.206-3.447-13.75c-1.311-3.888-4.008-6.924-5.517-10.689
			c-0.653-1.627-1.018-3.278-2.063-4.761c-2.041-2.816-4.03-5.537-6.923-7.288c-0.048-0.022-0.07,0-0.096,0.025
			C175.979,164.756,175.979,164.804,176.005,164.804L176.005,164.804z"/>
		<path fill="#B1877B" stroke="#F0D1C5" stroke-width="0.5" d="M191.309,186.082c4.831,8.964,4.902,19.238,6.289,29.076
			c0.025,0.073,0.073,0.124,0.146,0.099c0.07,0,0.121-0.073,0.099-0.122c-1.215-9.886-1.313-20.258-6.441-29.124
			c-0.022-0.025-0.048-0.025-0.093,0C191.283,186.033,191.283,186.059,191.309,186.082L191.309,186.082z"/>
		<path fill="#B1877B" stroke="#F0D1C5" stroke-width="0.5" d="M129,138.374c3.62,1.116,7.166,2.382,10.98,2.746
			c7.334,3.256,14.5,6.244,21.545,10.737c1.457,0.947,2.768,2.063,3.813,3.473c0.025,0.025,0.073,0.025,0.099,0
			c0.022-0.025,0.022-0.073,0-0.121c-1.071-1.384-2.356-2.503-3.813-3.498c-6.898-4.663-13.7-7.992-21.28-10.518
			c-3.715-1.241-7.529-1.847-11.321-2.916c-0.022-0.025-0.073,0-0.073,0.048C128.949,138.349,128.974,138.374,129,138.374
			L129,138.374z"/>
		<path fill="#B1877B" stroke="#F0D1C5" stroke-width="0.5" d="M158.826,147.243c0.902,0.338,1.729,0.801,2.528,1.407
			c6.972,5.345,12.804,10.81,19.022,16.809c4.152,3.986,6.872,8.939,9.52,13.945c0.025,0.048,0.073,0.073,0.121,0.048
			c0.051-0.025,0.073-0.073,0.051-0.121c-2.966-5.854-6.244-11.515-11.321-15.961c-5.854-5.15-10.833-10.201-17.319-14.863
			c-0.825-0.583-1.626-1.046-2.551-1.362c-0.022-0.025-0.051,0-0.07,0.025C158.778,147.192,158.807,147.217,158.826,147.243
			L158.826,147.243z"/>
		<path fill="#B1877B" stroke="#F0D1C5" stroke-width="0.5" d="M86.66,129.289c4.299-0.848,8.403,0.705,12.412,2.114
			c2.478,0.851,4.688,2.258,7.313,2.625c6.292,0.826,12.389,1.043,18.292,3.182c0.121,0.023,0.217-0.051,0.243-0.146
			c0.022-0.099-0.051-0.217-0.144-0.242c-6.393-2.456-13.24-1.847-19.873-3.693c-6.049-1.677-11.879-5.197-18.267-3.96
			c-0.025,0-0.048,0.048-0.048,0.073S86.634,129.289,86.66,129.289L86.66,129.289z"/>
		<path fill="#B1877B" stroke="#F0D1C5" stroke-width="0.5" d="M59.063,122.439c1.556-0.389,3.132-0.485,4.713-0.217
			c1.846,0.316,3.546,0.022,5.319,0.195c3.084,0.313,5.733,1.722,8.82,2.258c7.163,1.288,14.013,0.29,20.936,2.5
			c1.556,0.487,3.23,0.583,4.86,0.708c0.096,0,0.169-0.051,0.169-0.147c0.025-0.073-0.048-0.172-0.121-0.172
			c-3.763-0.412-7.287-1.528-11.076-2.137c-6.681-1.043-13.24-0.169-19.724-2.427c-4.4-1.508-9.305-1.362-13.92-0.657
			c-0.025,0-0.051,0.023-0.051,0.074C58.989,122.439,59.04,122.465,59.063,122.439L59.063,122.439z"/>
		<path fill="#B1877B" stroke="#F0D1C5" stroke-width="0.5" d="M111.046,129.605c2.599,0.946,5.348,0.389,8.042,1.093
			c6.56,1.652,11.828,5.054,18.582,6.486c3.158,0.68,5.782,2.114,8.575,3.621c1.143,0.606,2.479,0.558,3.62,1.164
			c0.073,0.051,0.144,0,0.169-0.07c0.048-0.074,0-0.147-0.07-0.172c-1.119-0.581-2.407-0.705-3.526-1.285
			c-2.622-1.41-5.1-2.772-7.989-3.426c-6.413-1.483-11.735-4.324-17.807-6.34c-3.157-1.045-6.436-0.34-9.57-1.191
			c-0.051-0.022-0.073,0-0.096,0.051C110.976,129.557,110.998,129.605,111.046,129.605L111.046,129.605z"/>
		<path fill="#B1877B" stroke="#F0D1C5" stroke-width="0.5" d="M80.622,127.564c-4.919-1.201-9.911-0.07-14.867-0.69
			c-2.878-0.364-5.72-1.204-8.634-0.693c-0.11,0-0.183-0.037-0.22-0.144c0-0.073,0.074-0.146,0.147-0.183
			c3.168-0.947,6.229,0.693,9.328,0.764c4.809,0.11,9.547-0.364,14.283,0.803c0.037,0.037,0.037,0.037,0.037,0.073
			S80.658,127.564,80.622,127.564L80.622,127.564z"/>
		<path fill="#B1877B" stroke="#F0D1C5" stroke-width="0.5" d="M55.807,121.154c-3.315-0.33-6.63-0.403-9.908-0.913
			c-0.073,0-0.11-0.071-0.11-0.144c0.037-0.073,0.11-0.11,0.18-0.11c3.281,0.327,6.56,0.62,9.838,1.021
			c0.037,0,0.074,0.037,0.074,0.073C55.88,121.114,55.844,121.154,55.807,121.154L55.807,121.154z"/>
		<path fill="#B1877B" stroke="#F0D1C5" stroke-width="0.5" d="M40.066,485.598c0.631-0.194,1.266-0.096,1.922,0.683
			c-0.22,0.121-0.465,0.239-0.682,0.363c0,0.048-0.048,0.096-0.122,0.073c-0.05,0-0.096-0.051-0.096-0.099
			c0.265,0.025,0.533,0.073,0.801,0.099c-0.293-0.874-1.046-1.021-1.824-1.021c-0.023,0-0.048-0.025-0.048-0.051
			C40.018,485.623,40.043,485.598,40.066,485.598L40.066,485.598z"/>
		<path fill="#B1877B" stroke="#F0D1C5" stroke-width="0.5" d="M45.946,494.782c0,0,0,0,0.606,0.558c0,0,0,0.025,0.025,0.025
			c0,0.022,0.023,0.07-0.025,0.118c-0.048,0.025-0.048,0.025-0.631,0.172c0,0-0.705-0.048-1.384-0.073
			c-0.68-0.242-0.728-0.242-0.753-0.293c0-0.045,0-0.096,0.048-0.144c0.073,0,0.536,0.073,1.021,0.144
			c0.462,0.076,0.462,0.076,1.604,0.028c0,0,0,0-0.048,0.144c0,0,0,0-0.415-0.631c0,0-0.048,0.025-0.096,0.025
			c-0.048,0.022-0.073,0-0.073-0.048c0.025-0.051,0.048-0.073,0.096-0.073C45.946,494.782,45.946,494.782,45.946,494.782z"/>
		<path fill="#B1877B" stroke="#F0D1C5" stroke-width="0.5" d="M39.556,384.958c-0.97,0.341-1.92,0.704-2.89,1.046
			c-0.051,0.022-0.073,0-0.099-0.023c0-0.048,0.025-0.076,0.048-0.099c0.973-0.366,1.922-0.704,2.892-1.043
			c0.025,0,0.076,0,0.076,0.048C39.604,384.91,39.584,384.958,39.556,384.958L39.556,384.958z"/>
		<path fill="#B1877B" stroke="#F0D1C5" stroke-width="0.5" d="M66.203,512.563c-8.33,2.771-17.125,2.858-25.734,4.107
			c-0.084,0-0.158-0.071-0.158-0.158c0-0.085,0.059-0.158,0.158-0.158c8.561-1.372,17.353-1.24,25.697-3.898
			c0.037-0.011,0.064,0.015,0.073,0.037C66.254,512.526,66.231,512.555,66.203,512.563L66.203,512.563z"/>
	</g>
	<g clip-path="url(#SVGID_2_)">
		<path fill="#B1877B" stroke="#F0D1C5" stroke-width="0.5" d="M50.798,370.813c5.167,1.012,10.105-1.675,14.946-3.118
			c1.215-0.36,2.48-0.448,3.698-0.786c8.44-2.368,16.132-5.771,24.003-9.11c0.073-0.022,0.096-0.091,0.048-0.136
			c-0.025-0.067-0.102-0.093-0.146-0.045c-7.053,2.954-14.027,5.908-21.421,8.273c-4.42,1.424-8.814,2.525-13.283,3.949
			c-2.407,0.767-5.237,1.508-7.817,0.883c-0.028-0.023-0.05,0-0.076,0.02C50.75,370.768,50.75,370.813,50.798,370.813
			L50.798,370.813z"/>
		<path fill="#B1877B" stroke="#F0D1C5" stroke-width="0.5" d="M98.902,354.934c6.703-2.568,11.541-7.233,17.474-11.272
			c6.85-4.666,10.892-10.997,16.725-16.248c0.048-0.049,0.048-0.094,0-0.136c-0.022-0.022-0.102-0.022-0.121,0
			c-7.222,6.422-12.409,14.199-21.517,19.431c-2.681,1.53-4.666,3.47-7.273,5.206c-1.736,1.17-3.425,2.162-5.361,2.93
			c-0.025,0-0.025,0.045-0.025,0.067C98.829,354.934,98.852,354.956,98.902,354.934L98.902,354.934z"/>
		<path fill="#B1877B" stroke="#F0D1C5" stroke-width="0.5" d="M136.554,324.774c5.731-5.86,10.72-11.946,15.382-18.887
			c1.615-2.391,3.823-4.102,5.512-6.537c2.134-3.109,4.02-6.083,5.33-9.443c0.028-0.087,0-0.155-0.099-0.203
			c-0.07-0.02-0.172,0-0.197,0.07c-2.579,5.587-5.953,10.906-10.594,15.324c-4.315,7.053-9.826,13.387-15.433,19.607
			c-0.028,0.023-0.028,0.068,0,0.091C136.503,324.819,136.529,324.819,136.554,324.774L136.554,324.774z"/>
		<path fill="#B1877B" stroke="#F0D1C5" stroke-width="0.5" d="M164.444,287.182c1.39-3.448,4.217-6.108,6.055-9.398
			c1.886-3.447,3-7.053,4.316-10.726c2.105-5.793,4.837-11.226,5.11-17.373c0.099-2.165,0.919-4.237,1.488-6.356
			c0.022-0.046-0.028-0.113-0.076-0.113c-0.048-0.022-0.099,0.022-0.124,0.067c-1.688,4.463-1.908,9.17-2.703,13.793
			c-4.392,8.899-5.652,18.633-12.53,26.884c-0.817,0.97-0.989,2.165-1.66,3.178c0,0.022,0,0.067,0.025,0.067
			C164.394,287.227,164.419,287.204,164.444,287.182L164.444,287.182z"/>
		<path fill="#B1877B" stroke="#F0D1C5" stroke-width="0.5" d="M37.792,375.726c4.172-0.834,8.315-0.048,12.589-0.75
			c2.78-0.448,5.038-1.889,7.792-2.319c5.759-0.925,11.019-2.323,16.409-3.882c0.102-0.02,0.122-0.09,0.102-0.155
			c-0.028-0.067-0.102-0.115-0.175-0.087c-5.189,1.324-10.229,2.948-15.738,3.65c-3.304,0.453-6.032,2.413-9.308,2.661
			c-3.924,0.293-7.845,0.118-11.693,0.77c-0.025,0-0.048,0.042-0.048,0.067C37.721,375.703,37.769,375.726,37.792,375.726
			L37.792,375.726z"/>
		<path fill="#B1877B" stroke="#F0D1C5" stroke-width="0.5" d="M79.421,366.477c7.196-0.521,12.809-4.513,18.96-8.005
			c4.397-2.459,8.814-4.173,12.685-7.191c4.792-3.741,8.857-7.732,13.55-11.405c0.048-0.02,0.048-0.09,0.025-0.136
			c-0.025-0.022-0.102-0.042-0.149-0.022c-3.848,3.157-7.667,6.199-11.493,9.514c-7.493,6.47-16.578,9.853-25.488,14.969
			c-2.481,1.443-5.311,1.688-8.116,2.188c-0.051,0-0.051,0.022-0.051,0.064C79.345,366.477,79.396,366.499,79.421,366.477
			L79.421,366.477z"/>
		<path fill="#B1877B" stroke="#F0D1C5" stroke-width="0.5" d="M128.066,336.811c3.747-4.081,7.766-7.709,12.384-11.25
			c3.943-2.996,5.981-7.008,8.561-11.019c2.356-3.696,5.731-6.47,8.438-9.827c0.025-0.045,0.025-0.112-0.025-0.136
			c-0.048-0.045-0.124-0.045-0.146,0c-1.963,2.456-4.294,4.44-6.38,6.94c-3.673,4.33-5.336,9.331-9.728,13.029
			c-4.713,3.988-9.407,7.571-13.201,12.194c-0.025,0.02-0.025,0.067,0,0.087C127.993,336.83,128.041,336.83,128.066,336.811
			L128.066,336.811z"/>
		<path fill="#B1877B" stroke="#F0D1C5" stroke-width="0.5" d="M160.771,300.813c4.566-7.346,8.115-14.918,12.979-22.422
			c4.045-6.198,5.409-12.846,7.718-19.425c0.022-0.045,0-0.093-0.051-0.112c-0.048-0.022-0.124,0-0.149,0.045
			c-1.24,2.884-1.889,5.902-2.929,8.854c-4.189,11.808-12.034,21.883-17.666,33.015c-0.022,0.022,0,0.045,0.025,0.07
			C160.724,300.858,160.771,300.858,160.771,300.813L160.771,300.813z"/>
		<path fill="#B1877B" stroke="#F0D1C5" stroke-width="0.5" d="M153.084,318.505c5.41-7.053,10.994-13.95,14.518-22.086
			c0.744-1.666,2.354-2.861,3.053-4.595c0-0.07-0.028-0.113-0.076-0.139c-0.076-0.022-0.149,0-0.175,0.068
			c-3.005,4.169-4.964,8.699-7.639,13.139c-2.884,4.823-6.431,9.06-9.779,13.522c-0.028,0.045-0.028,0.067,0,0.09
			C153.033,318.527,153.059,318.527,153.084,318.505L153.084,318.505z"/>
		<path fill="#B1877B" stroke="#F0D1C5" stroke-width="0.5" d="M116.453,350.536c0.795-0.471,1.466-1.125,2.309-1.511
			c10.771-4.826,16.308-14.673,25.139-21.39c0.048-0.046,0.076-0.113,0.025-0.158s-0.149-0.067-0.2-0.022
			c-8.908,6.312-13.945,16.296-24.468,21.071c-1.068,0.499-1.889,1.311-2.878,1.92c-0.025,0.022-0.025,0.045,0,0.067
			C116.379,350.536,116.43,350.559,116.453,350.536L116.453,350.536z"/>
		<path fill="#B1877B" stroke="#F0D1C5" stroke-width="0.5" d="M63.833,374.412c2.929-0.112,5.784-0.341,8.69-1.063
			c3.845-0.947,6.796-3.132,10.371-4.485c5.339-2.01,10.574-3.991,15.588-6.517c0.076-0.046,0.102-0.11,0.051-0.181
			c-0.022-0.067-0.124-0.091-0.2-0.067c-5.063,2.436-10.349,4.262-15.513,6.63c-6.08,2.773-12.113,5.635-18.988,5.595
			c-0.023,0-0.048,0.023-0.048,0.043C63.784,374.39,63.81,374.412,63.833,374.412L63.833,374.412z"/>
		<path fill="#B1877B" stroke="#F0D1C5" stroke-width="0.5" d="M49.473,138.65c5.985-0.406,11.744,0.719,17.576,1.799
			c8.812-0.768,17.528,1.641,25.793,4.273c0.048,0.025,0.101,0,0.124-0.042c0.025-0.068,0-0.113-0.076-0.138
			c-8.415-2.971-17.398-5.086-26.458-4.454c-5.587-1.261-11.199-2.047-16.958-1.574c-0.022,0-0.051,0.048-0.051,0.068
			C49.422,138.605,49.45,138.65,49.473,138.65L49.473,138.65z"/>
		<path fill="#B1877B" stroke="#F0D1C5" stroke-width="0.5" d="M100.066,145.625c1.043,0.358,2.058,0.809,3.151,0.854
			c6.529,0.268,12.167,2.971,18.568,4.366c5.387,1.17,10.649,1.911,15.417,4.367c0.025,0.022,0.051,0.022,0.076,0
			c0.025-0.045,0-0.068-0.025-0.09c-4.445-2.41-9.483-3.106-14.548-4.299c-6.602-1.576-12.612-4.302-19.439-4.524
			c-1.088-0.022-2.131-0.451-3.174-0.786c-0.025,0-0.051,0-0.076,0.045C100.016,145.58,100.016,145.602,100.066,145.625
			L100.066,145.625z"/>
		<path fill="#B1877B" stroke="#F0D1C5" stroke-width="0.5" d="M141.598,157.644c7.67,3.805,15.072,7.974,20.78,14.349
			c3.701,4.144,6.182,8.741,9.04,13.245c0.025,0.046,0.099,0.071,0.149,0.046c0.048-0.046,0.073-0.11,0.048-0.155
			c-2.235-4.237-4.789-8.045-7.87-12.031c-5.711-7.369-13.73-11.671-22.097-15.544c-0.025-0.022-0.051-0.022-0.076,0.022
			C141.549,157.599,141.572,157.621,141.598,157.644L141.598,157.644z"/>
		<path fill="#B1877B" stroke="#F0D1C5" stroke-width="0.5" d="M173.281,188.687c3.326,6.083,4.817,12.639,5.663,19.443
			c1.046,8.271,2.289,16.358,2.639,24.607c0,0.045,0.051,0.09,0.099,0.09c0.051,0,0.102-0.045,0.102-0.09
			c0.245-6.016-0.575-11.899-1.469-17.915c-0.823-5.316-1.195-10.343-2.489-15.704c-0.921-3.763-2.412-7.165-4.445-10.475
			c0-0.025-0.048-0.048-0.076-0.025C173.281,188.618,173.256,188.664,173.281,188.687L173.281,188.687z"/>
		<path fill="#B1877B" stroke="#F0D1C5" stroke-width="0.5" d="M182.396,208.288c0.374,1.218,0.673,2.41,0.919,3.673
			c0.97,4.775,0.03,9.306,0.053,13.926c0.051,5.092,0.947,10.208,0.826,15.324c-0.102,4.505-1.615,8.809-2.554,13.227
			c0,0.067,0.048,0.135,0.124,0.157c0.099,0,0.172-0.045,0.172-0.135c1.091-4.237,2.407-8.406,2.652-12.778
			c0.321-5.609-1.046-11.132-0.772-16.72c0.296-5.609,0.742-11.313-1.271-16.696c-0.025-0.045-0.051-0.067-0.102-0.045
			C182.421,208.221,182.396,208.266,182.396,208.288L182.396,208.288z"/>
		<path fill="#B1877B" stroke="#F0D1C5" stroke-width="0.5" d="M186.545,222.707c0.151,4.373,1.119,8.699,1.119,13.046
			c-0.023,5.14-0.939,10.211-1.979,15.281c-0.025,0.046,0.022,0.088,0.073,0.088s0.099-0.022,0.099-0.067
			c1.24-5.046,2.182-10.162,2.18-15.324c-0.025-4.347-1.018-8.674-1.367-13.043c0-0.023-0.051-0.049-0.076-0.049
			C186.57,222.639,186.545,222.664,186.545,222.707L186.545,222.707z"/>
		<path fill="#B1877B" stroke="#F0D1C5" stroke-width="0.5" d="M175.167,283.641c1.365-5.249,4.765-9.711,6.625-14.85
			c0.792-2.165,1.412-4.305,2.48-6.354c0.048-0.049,0.022-0.113-0.051-0.136c-0.051-0.022-0.124,0-0.149,0.042
			c-2.652,7.236-6.723,13.951-9.029,21.274c0,0.022,0,0.045,0.049,0.067C175.117,283.686,175.142,283.686,175.167,283.641
			L175.167,283.641z"/>
		<path fill="#B1877B" stroke="#F0D1C5" stroke-width="0.5" d="M163.917,170.688c2.855,1.688,5.04,4.187,6.779,6.893
			c2.284,3.583,3.577,7.23,6.011,10.836c3.352,5,3.428,10.747,5.364,16.086c0.028,0.068,0.102,0.113,0.177,0.091
			c0.074-0.022,0.124-0.091,0.097-0.158c-1.364-4.214-1.962-8.537-3.526-12.752c-1.342-3.605-4.097-6.421-5.639-9.914
			c-0.673-1.508-1.043-3.041-2.111-4.414c-2.086-2.613-4.121-5.137-7.075-6.76c-0.054-0.022-0.076,0-0.102,0.022
			C163.892,170.64,163.892,170.688,163.917,170.688L163.917,170.688z"/>
		<path fill="#B1877B" stroke="#F0D1C5" stroke-width="0.5" d="M179.563,190.42c4.938,8.313,5.018,17.846,6.433,26.971
			c0.025,0.067,0.076,0.112,0.149,0.09c0.076,0,0.127-0.067,0.102-0.112c-1.243-9.173-1.348-18.794-6.585-27.016
			c-0.025-0.022-0.051-0.022-0.099,0C179.537,190.375,179.537,190.397,179.563,190.42L179.563,190.42z"/>
		<path fill="#B1877B" stroke="#F0D1C5" stroke-width="0.5" d="M115.877,146.183c3.699,1.034,7.324,2.207,11.219,2.542
			c7.499,3.016,14.824,5.787,22.024,9.953c1.488,0.88,2.83,1.914,3.898,3.222c0.025,0.022,0.073,0.022,0.102,0
			c0.022-0.022,0.022-0.067,0-0.112c-1.097-1.286-2.413-2.32-3.904-3.245c-7.05-4.323-14.001-7.407-21.748-9.75
			c-3.797-1.147-7.692-1.711-11.566-2.7c-0.025-0.022-0.076,0-0.076,0.045C115.827,146.16,115.855,146.183,115.877,146.183
			L115.877,146.183z"/>
		<path fill="#B1877B" stroke="#F0D1C5" stroke-width="0.5" d="M146.361,154.4c0.922,0.313,1.765,0.742,2.585,1.305
			c7.126,4.955,13.085,10.023,19.441,15.589c4.245,3.692,7.022,8.29,9.731,12.93c0.028,0.045,0.076,0.068,0.124,0.045
			c0.051-0.022,0.076-0.067,0.051-0.112c-3.033-5.429-6.385-10.678-11.572-14.802c-5.987-4.776-11.072-9.461-17.699-13.785
			c-0.849-0.541-1.666-0.97-2.607-1.263c-0.028-0.023-0.054,0-0.076,0.025C146.313,154.355,146.339,154.375,146.361,154.4
			L146.361,154.4z"/>
		<path fill="#B1877B" stroke="#F0D1C5" stroke-width="0.5" d="M72.607,137.765c4.395-0.79,8.589,0.651,12.685,1.959
			c2.531,0.787,4.79,2.095,7.473,2.431c6.433,0.764,12.66,0.967,18.692,2.949c0.124,0.022,0.226-0.045,0.251-0.136
			c0.025-0.09-0.051-0.203-0.149-0.225c-6.531-2.275-13.531-1.711-20.31-3.419c-6.179-1.557-12.138-4.821-18.667-3.668
			c-0.025,0-0.048,0.042-0.048,0.064S72.582,137.765,72.607,137.765L72.607,137.765z"/>
		<path fill="#B1877B" stroke="#F0D1C5" stroke-width="0.5" d="M44.404,131.419c1.59-0.361,3.205-0.454,4.82-0.206
			c1.883,0.293,3.625,0.022,5.435,0.18c3.151,0.291,5.86,1.599,9.012,2.095c7.324,1.189,14.323,0.265,21.398,2.312
			c1.587,0.454,3.301,0.541,4.967,0.654c0.093,0,0.172-0.045,0.172-0.135c0.023-0.067-0.048-0.158-0.126-0.158
			c-3.845-0.381-7.448-1.418-11.318-1.979c-6.825-0.967-13.528-0.155-20.158-2.25c-4.493-1.396-9.508-1.26-14.224-0.603
			c-0.025,0-0.048,0.022-0.048,0.067C44.334,131.419,44.382,131.442,44.404,131.419L44.404,131.419z"/>
		<path fill="#B1877B" stroke="#F0D1C5" stroke-width="0.5" d="M97.532,138.053c2.652,0.876,5.463,0.358,8.22,1.012
			c6.698,1.531,12.087,4.683,18.988,6.014c3.228,0.628,5.906,1.956,8.764,3.352c1.165,0.563,2.529,0.519,3.699,1.083
			c0.073,0.045,0.149,0,0.175-0.068c0.048-0.067,0-0.135-0.076-0.158c-1.142-0.542-2.458-0.654-3.603-1.192
			c-2.678-1.308-5.212-2.568-8.167-3.177c-6.551-1.373-11.989-4.005-18.193-5.875c-3.228-0.97-6.58-0.316-9.782-1.102
			c-0.054-0.023-0.076,0-0.102,0.045C97.456,138.007,97.481,138.053,97.532,138.053L97.532,138.053z"/>
		<path fill="#B1877B" stroke="#F0D1C5" stroke-width="0.5" d="M66.44,136.167c-5.026-1.113-10.128-0.064-15.191-0.637
			c-2.943-0.338-5.846-1.114-8.823-0.64c-0.116,0-0.189-0.034-0.226-0.135c0-0.068,0.076-0.135,0.146-0.169
			c3.242-0.88,6.371,0.643,9.534,0.708c4.916,0.102,9.756-0.341,14.599,0.738c0.034,0.034,0.034,0.034,0.034,0.068
			C66.513,136.136,66.479,136.167,66.44,136.167L66.44,136.167z"/>
		<path fill="#B1877B" stroke="#F0D1C5" stroke-width="0.5" d="M41.081,130.225c-3.388-0.302-6.777-0.369-10.128-0.843
			c-0.073,0-0.113-0.065-0.113-0.132c0.04-0.068,0.113-0.102,0.189-0.102c3.349,0.304,6.701,0.572,10.052,0.941
			c0.037,0,0.076,0.034,0.076,0.068C41.157,130.191,41.118,130.225,41.081,130.225L41.081,130.225z"/>
	</g>
	<g clip-path="url(#SVGID_2_)">
		<path fill="#F4D9CE" stroke="#E5AB97" stroke-width="0.5" d="M60.486,382.387c2.737-0.778,11.352,1.945,13.784,3.507
			c2.785,1.79,7.685,4.888,11.676,12.496c6.362,12.124,7.645,29.103,2.12,49.548c-3.499,12.953-12.719,31.219-28.361,45.074
			c-7.588,6.72-14.03,8.795-20.373,9.438l0.451-0.696c-0.919,3.259-1.544,7.419-1.846,12.916
			c-0.699,12.798-2.805,54.704-2.453,56.838h-4.908c0,0,1.097-48.894,1.398-61.1c0.352-14.081,1.621-19.707,2.971-32.843
			c1.401-13.649-0.536-23.728-2.456-45.642c-4.203-48.064,8.062-81.463,27.327-79.758c5.942,0.524,8.496,6.873,5.959,16.136
			c-1.895,6.895-4.899,10.974-5.333,14.086H60.486z"/>
		<path fill="#FDECE4" stroke="#E5AB97" stroke-width="0.5" d="M63.198,382.375c-4.553,0.423-8.589-5.547-5.438-11.089
			c3.481-6.126-0.527-17.999-10.323-7.253c-8.944,9.807-11.56,25.161-9.46,42.227c2.105,17.058,8.386,42.228,5.767,69.522
			c-0.462,4.86-2.043,19.073-3.673,25.48c-0.471,1.86,5.308,1.104,10.272-1.658c3.081-1.438,6.295-3.528,9.748-6.593
			c15.645-13.855,24.868-32.121,28.366-45.074c5.522-20.445,4.243-37.424-2.117-49.548c-3.992-7.608-8.894-10.706-11.682-12.496
			c-1.931-1.24-7.76-3.214-11.45-3.583L63.198,382.375z"/>
		
			<radialGradient id="SVGID_9_" cx="8267.3408" cy="1064.9248" r="70.3168" gradientTransform="matrix(-0.9395 0 0 1.1439 7806.6816 -775.7158)" gradientUnits="userSpaceOnUse">
			<stop  offset="0" style="stop-color:#F6EBE6"/>
			<stop  offset="1" style="stop-color:#F0BAAE"/>
		</radialGradient>
		<path fill="url(#SVGID_9_)" stroke="#E5AB97" stroke-width="0.5" d="M66.62,478.638c14.089-16.344,20.353-36.191,19.96-59.151
			c-0.392-22.96-15.064-30.932-28.724-30.512c-13.664,0.432-20.122,4.127-20.857,17.491c-0.696,12.795-0.113,12.335,2.106,41.373
			c0.648,8.462,2.018,23.535,0.699,31.561c-2.1,12.798-1.384,14.923,3.157,14.923C53.819,494.322,61.008,485.146,66.62,478.638z"/>
	</g>
	<g clip-path="url(#SVGID_2_)">
		<path fill="#FAD6C7" stroke="#1D1D1B" stroke-width="0.2928" d="M-3.271,381.22c-2.737-0.778-11.352,1.945-13.782,3.507
			c-2.788,1.79-7.687,4.885-11.679,12.493c-6.359,12.127-7.642,29.105-2.117,49.551c3.498,12.95,12.719,31.219,28.361,45.074
			c7.585,6.72,14.029,8.795,20.375,9.435l-0.454-0.696c0.922,3.262,1.545,7.422,1.847,12.919c0.699,12.798,2.5,58.005,2.5,58.005
			h3.992c0,0-0.231-50.062-0.536-62.267c-0.352-14.078-1.621-19.704-2.968-32.844c-1.398-13.646,0.539-23.727,2.453-45.641
			c4.206-48.064-8.057-81.463-27.321-79.758c-5.942,0.527-8.496,6.873-5.959,16.133c1.891,6.897,4.899,10.974,5.336,14.089H-3.271z"
			/>
		<path fill="#FDECE4" stroke="#1D1D1B" stroke-width="0.2928" d="M-5.983,381.206c4.555,0.428,8.592-5.545,5.44-11.087
			c-3.481-6.129,0.527-18.002,10.323-7.256c8.944,9.81,11.561,25.164,9.458,42.227c-2.1,17.061-8.386,42.228-5.768,69.525
			c0.468,4.863,2.049,19.073,3.673,25.48c0.474,1.86-5.308,1.104-10.275-1.66c-3.076-1.436-6.292-3.529-9.748-6.591
			c-15.639-13.855-24.865-32.124-28.361-45.074c-5.525-20.445-4.242-37.424,2.117-49.551c3.991-7.608,8.894-10.703,11.681-12.493
			c1.931-1.243,7.761-3.217,11.451-3.586L-5.983,381.206z"/>
		
			<radialGradient id="SVGID_10_" cx="-129.2754" cy="1064.9248" r="70.3168" gradientTransform="matrix(0.9395 0 0 1.1439 138.7344 -775.7158)" gradientUnits="userSpaceOnUse">
			<stop  offset="0" style="stop-color:#F6EBE6"/>
			<stop  offset="1" style="stop-color:#EE998E"/>
		</radialGradient>
		<path fill="url(#SVGID_10_)" stroke="#1D1D1B" stroke-width="0.2928" d="M-9.823,478.638
			c-14.092-16.344-20.355-36.191-19.963-59.151c0.395-22.96,15.062-30.932,28.728-30.512c13.66,0.432,20.118,4.127,20.854,17.491
			c0.696,12.795,0.113,12.335-2.105,41.373c-0.648,8.462-2.019,23.535-0.705,31.561c2.106,12.798,1.39,14.923-3.148,14.923
			C2.978,494.322-4.216,485.146-9.823,478.638z"/>
	</g>
	<path clip-path="url(#SVGID_2_)" fill="#F4DED4" stroke="#1D1D1B" stroke-width="0.5" d="M19.657,533.26
		c-3.831,1.968-5.423-2.373-5.903-4.521c-0.761-3.431-4.425-9.046-4.045-15.141c0.22-3.501-3.047-4.569-3.808-7.997
		c-0.761-3.425,4.188-3.425,6.094-3.044c1.903,0.38,2.202,0.589,1.522-1.525c-0.428-1.33-0.459-4.209,0.096-6.427
		c0.425-1.711,4.234-4.756,5.756-3.614l0.291,4.082c0.936,7.74,0.265,13.863,0.084,21.956c-0.118,5.103,0.24,10.165,0.124,15.087
		L19.657,533.26z"/>
	<path clip-path="url(#SVGID_2_)" fill="#F4DED4" stroke="#1D1D1B" stroke-width="0.5" d="M35.097,533.26
		c3.836,1.968,5.426-2.373,5.908-4.521c0.758-3.431,4.426-9.046,4.045-15.141c-0.22-3.501,3.044-4.569,3.806-7.997
		c0.764-3.425-4.186-3.425-6.092-3.044c-1.902,0.38-2.204,0.589-1.522-1.525c0.428-1.33,0.457-4.209-0.096-6.427
		c-0.429-1.711-4.234-4.756-5.759-3.614l-0.293,4.082c-0.933,7.74-0.265,13.863-0.082,21.956c0.119,5.103-0.242,10.165-0.124,15.087
		L35.097,533.26z"/>
	<g clip-path="url(#SVGID_2_)">
		<g>
			<path fill="#E5AB97" d="M32.063,371.478c0.817-8.342,1.913-16.608,4.066-24.725c2.201-8.296,5.772-16.932,13.698-21.143
				c0.354-0.188,0.11-0.757-0.271-0.643c-8.086,2.424-11.855,12.479-14.002,19.729c-2.543,8.588-3.617,17.838-3.734,26.78
				C31.819,371.637,32.048,371.63,32.063,371.478L32.063,371.478z"/>
		</g>
	</g>
	<g clip-path="url(#SVGID_2_)">
		<g>
			<path fill="#E5AB97" d="M46.386,321.766c3.422-2.034,8.526-6.583,12.619-4.085c2.716,1.657-5.167,4.984-6.342,5.5
				c-0.289,0.126-0.078,0.563,0.208,0.492c2.118-0.523,8.884-2.729,7.458-5.912c-0.875-1.953-3.907-1.808-5.526-1.315
				c-3.166,0.965-5.793,3.389-8.473,5.227C46.273,321.711,46.324,321.803,46.386,321.766L46.386,321.766z"/>
		</g>
	</g>
	<g clip-path="url(#SVGID_2_)">
		<g>
			<path fill="#E5AB97" d="M55.829,316.55c-0.652,0.195-1.389,0.582-1.479,1.337c-0.087,0.723,0.362,1.345,0.876,1.802
				c1.178,1.048,3.69,1.716,4.737,0.126c0.195-0.296-0.182-0.637-0.47-0.471c-0.599,0.345-1.055,0.639-1.773,0.656
				c-0.644,0.017-1.283-0.19-1.834-0.516c-0.478-0.282-0.936-0.722-1.105-1.263c-0.234-0.748,0.55-1.242,1.115-1.515
				C55.984,316.664,55.921,316.522,55.829,316.55L55.829,316.55z"/>
		</g>
	</g>
	<g clip-path="url(#SVGID_2_)">
		<g>
			<path fill="#E5AB97" d="M19.896,323.139c7.469,2.983,17.821,3.464,25.056-0.425c0.369-0.198,0.045-0.725-0.323-0.553
				c-7.339,3.422-17.124,3.609-24.697,0.849C19.85,322.98,19.818,323.107,19.896,323.139L19.896,323.139z"/>
		</g>
	</g>
	<g clip-path="url(#SVGID_2_)">
		<g>
			<path fill="#E5AB97" d="M23.866,321.241c4.605,3.282,12.08,2.085,17.177,0.803c0.315-0.079,0.18-0.546-0.133-0.482
				c-4.981,1.019-12.251,2.224-16.808-0.725C23.845,320.67,23.624,321.069,23.866,321.241L23.866,321.241z"/>
		</g>
	</g>
	<g clip-path="url(#SVGID_2_)">
		<g>
			<path fill="#E5AB97" d="M29.647,361.856c0.137-6.54,1.378-13.274,3.261-19.529c2.076-6.896,7.195-14.437,13.829-17.567
				c0.338-0.16,0.091-0.754-0.256-0.607c-6.403,2.699-11.346,9.956-13.602,16.331c-2.354,6.652-3.481,14.322-3.451,21.373
				C29.429,361.998,29.644,361.997,29.647,361.856L29.647,361.856z"/>
		</g>
	</g>
</g>
<g>
	<path fill="#0072BC" stroke="#0072BC" stroke-width="0.5" d="M144.331,180.421c-1.04-2.182-3.543-3.304-6.184-1.911
		c-0.042,0.291-0.084,0.578-0.13,0.868c-2.675-0.318-3.32,1.137-3.242,2.909c0.293,0.327,1.108,1.258,0.888,1.514
		c-1.489,1.734-0.846,3.425-0.389,4.95c-0.127,0.865,2.128,1.723,2.128,1.723c-0.102,1.438,1.942,3.721,4.425,2.289
		c0,0,0.088-0.578,0.13-0.866c0.378-0.25,1.415,0.415,1.672,0.198c2.092-1.748-0.037-2.062,0.426-2.89
		c0.38-0.248,1.063,1.263,2.049-0.048c0.178-0.234,0.13-0.868,0.172-1.156c2.385-0.011,2.639-1.744,2.521-3.228
		c-0.209-0.907-1.59-0.777-2.594-0.896c1.469-0.707,1.723-2.441,0.804-3.137c-0.584-0.657-1.587-0.778-2.255-0.857
		C144.752,179.883,144.374,180.134,144.331,180.421z"/>
</g>
<g>
	<path fill="#0072BC" stroke="#0072BC" stroke-width="0.5" d="M196.924,285.946c0.439,3.547-0.372,6.419-2.782,8.793
		c-2.301,2.269-7.344,3.563-10.253,0.51c-0.271,0.262-0.532,0.524-0.803,0.789c-1.57-0.229-2.602-0.986-3.637-1.747
		c-1.339,1.318-3.71,1.883-5.164,0.354c-0.538,0.53-1.071,1.055-2.029,0.813c-1.646-0.744-3.519-3.144-4.057-2.515
		c-1.92,2.241-5.361,3.425-8.53,2.486c-1.892-0.562-4.403-2.766-5.896-2.48c-2.639,0.825-7.115,1.683-9.337-0.866
		c0,0,0.269-0.265,0.536-0.524c-1.723-1.266-4.181-1.415-5.83-2.162c-1.643-0.746-2.125-2.227-2.562-3.667
		c0.539-0.527,0.31-1.015,0.502-1.796c0,0-0.691-0.507-1.035-0.758c0.265-0.265,0.8-0.792,1.068-1.055
		c-1.455-1.527-2.938-1.305-3.783-2.844c-0.344-0.248,0.564-2.278,0.564-2.278c-2.723-3.833,0.146-7.25,3.126-7.822
		c0.882-0.273,2.374-0.561,2.221-1.593c-0.425-0.772-0.569-0.992-1.26-1.499c-0.767-1.021-0.24-2.359,0.564-3.149
		c0.268-0.262,0.612-0.014,0.958,0.24c1.215-4.164,4.051-9.153,10.049-8.728c0.871,0.063,1.99,1.001,2.946,1.24
		c0.611-0.011,0.995-1.57,1.953-1.327c1.032,0.755,2.447-0.049,2.791,0.205c2.258,0.736,5.358,3.008,4.792,5.354
		c0.268-0.268,0.725-1.309,1.412-0.807c1.381,1.013,3.072-1.288,4.46-1.158c5.116,0.482,8.307,4.381,10.512,8.913
		c0.228,0.471,1.378,1.01,0.228,1.548c1.306,0.496,2.718-0.308,3.062-0.057c2.604,0.989,4.042-0.544,7.546,3.23
		c0.254,0.273-0.803,0.792-1.339,1.316c1.646,0.747,1.686,3.078,0.615,4.133c0.803-0.792,1.947,0.366,2.793,0.206
		c2.607-0.491,5.478,1.091,6.816,4.535c0.191,0.493-0.11,1.3-0.992,1.573c0.344,0.254,0.69,0.507,1.034,0.758
		C197.992,284.893,196.834,285.236,196.924,285.946z"/>
</g>
<g>
	<path fill="#0072BC" stroke="#0072BC" stroke-width="0.5" d="M192.114,232.551c1.023,2.098,1.131,4.043,0.145,6.019
		c-0.939,1.886-3.777,3.752-6.219,2.483c-0.113,0.217-0.22,0.438-0.327,0.657c-1.021,0.188-1.815-0.06-2.616-0.311
		c-0.547,1.097-1.892,1.948-3.109,1.311c-0.225,0.443-0.439,0.877-1.085,0.931c-1.173-0.112-2.839-1.198-3.036-0.693
		c-0.71,1.793-2.585,3.25-4.738,3.34c-1.288,0.054-3.304-0.774-4.163-0.284c-1.458,1.068-4.04,2.546-5.948,1.44
		c0,0,0.11-0.22,0.217-0.437c-1.327-0.418-2.878,0.011-4.056-0.102c-1.17-0.113-1.779-0.925-2.354-1.723
		c0.22-0.439-0.025-0.69-0.07-1.212c0,0-0.535-0.169-0.798-0.251c0.104-0.22,0.327-0.657,0.438-0.877
		c-1.224-0.634-2.089-0.183-2.94-0.955c-0.265-0.082-0.133-1.525-0.133-1.525c-2.491-1.79-1.443-4.508,0.276-5.488
		c0.485-0.358,1.345-0.849,1.035-1.455c-0.426-0.386-0.562-0.49-1.097-0.659c-0.688-0.465-0.648-1.406-0.321-2.063
		c0.115-0.22,0.377-0.136,0.643-0.054c-0.13-2.83,0.566-6.507,4.36-7.513c0.55-0.146,1.44,0.197,2.078,0.141
		c0.377-0.138,0.284-1.179,0.924-1.234c0.798,0.251,1.503-0.544,1.771-0.46c1.551-0.022,3.941,0.722,4.09,2.289
		c0.107-0.22,0.173-0.961,0.699-0.795c1.065,0.333,1.624-1.446,2.509-1.66c3.262-0.783,6.056,0.95,8.375,3.278
		c0.24,0.242,1.063,0.33,0.468,0.907c0.911,0.031,1.613-0.764,1.878-0.682c1.818,0.062,2.382-1.189,5.339,0.397
		c0.217,0.115-0.327,0.66-0.544,1.098c1.17,0.115,1.691,1.544,1.252,2.421c0.329-0.659,1.282-0.186,1.77-0.465
		c1.506-0.854,3.608-0.485,5.167,1.358c0.221,0.265,0.206,0.826-0.281,1.182c0.265,0.081,0.532,0.166,0.801,0.248
		C192.552,231.678,191.912,232.134,192.114,232.551z"/>
</g>
<g>
	<path fill="#0072BC" stroke="#0072BC" stroke-width="0.5" d="M167.491,197.745c1.105,0.841,1.709,1.844,1.765,3.154
		c0.057,1.255-0.859,3.005-2.449,2.985c0.003,0.146,0.012,0.293,0.017,0.438c-0.462,0.375-0.933,0.453-1.409,0.538
		c0.031,0.728-0.411,1.539-1.206,1.528c0.011,0.296,0.025,0.583-0.285,0.783c-0.626,0.254-1.776,0.127-1.733,0.448
		c0.144,1.139-0.395,2.416-1.46,3.042c-0.638,0.372-1.889,0.473-2.188,0.964c-0.438,0.958-1.328,2.433-2.605,2.359
		c0,0-0.005-0.146-0.011-0.291c-0.789,0.136-1.455,0.778-2.083,1.032c-0.623,0.254-1.162-0.012-1.675-0.282
		c-0.014-0.293-0.209-0.36-0.378-0.623c0,0-0.318,0.054-0.474,0.079c-0.008-0.144-0.02-0.434-0.025-0.58
		c-0.798-0.009-1.11,0.462-1.759,0.278c-0.152,0.028-0.496-0.772-0.496-0.772c-1.762-0.281-1.996-2.004-1.4-2.987
		c0.146-0.319,0.442-0.81,0.115-1.049c-0.324-0.091-0.423-0.107-0.738-0.054c-0.482-0.064-0.725-0.575-0.742-1.009
		c-0.005-0.149,0.152-0.175,0.308-0.203c-0.862-1.466-1.542-3.603,0.096-5.156c0.237-0.223,0.784-0.278,1.091-0.479
		c0.152-0.175-0.186-0.702,0.121-0.905c0.474-0.079,0.609-0.69,0.768-0.716c0.777-0.429,2.198-0.674,2.714,0.115
		c-0.008-0.146-0.183-0.555,0.13-0.608c0.632-0.107,0.417-1.204,0.804-1.554c1.429-1.291,3.329-1.119,5.158-0.505
		c0.191,0.063,0.632-0.109,0.493,0.355c0.471-0.229,0.601-0.837,0.759-0.865c0.938-0.453,0.871-1.268,2.813-1.217
		c0.144,0,0.02,0.437,0.033,0.727c0.626-0.253,1.288,0.366,1.313,0.95c-0.02-0.44,0.598-0.443,0.767-0.722
		c0.521-0.859,1.689-1.226,2.994-0.665c0.188,0.082,0.338,0.384,0.191,0.704c0.158-0.031,0.316-0.06,0.477-0.087
		C167.466,197.165,167.271,197.579,167.491,197.745z"/>
</g>
<g>
	<path fill="#0072BC" stroke="#0072BC" stroke-width="0.5" d="M142.753,322.73c0.496,0.191,1.491,0.584,1.984,0.775
		c1.103,1.575-0.172,3.368-0.755,4.859c2.483,0.97,5.161,1.446,7.447,2.912c-0.194,0.496-0.584,1.491-0.778,1.987
		c0.496,0.191,1.491,0.584,1.99,0.778c0.795,0.882,0.214,2.373-0.175,3.365c3.476,1.361,7.039,1.035,10.123,3.389
		c-0.195,0.496,0.608,1.381-0.282,2.182c3.566-0.324,8.229,0.928,9.632,3.194c1.207,2.762-1.034,7.038-3.391,10.125
		c1.488,0.581,3.078,0.767,3.975,1.554c1.821,1.598,1.015,3.261,1.424,5.139c-0.088,1.686-1.663,2.785-1.748,4.468
		c0.302,0.69,1.342,1.06,1.599,1.768c1.511,4.178,2.472,8.986-3.561,13.494c-0.432,0.321-1.491-0.581-1.987-0.778
		c-0.194,0.496-0.584,1.494-0.778,1.987c-1.771,1.599-3.755,0.82-5.031,2.613c0,0-0.992-0.39-1.486-0.584
		c-0.281,2.18-0.476,5.461-2.331,5.959c-4.484,1.21-5.962-2.331-6.844-1.533c-3.544,3.194-7.299,4.015-11.377,1.274
		c0.106,1.184-1.188,0.107-1.576,1.103c-3.45,1.327-5.855,0.366-6.864-4.403c-0.223-1.043,0.97-2.483,0.668-3.174
		c-1.102-1.579-3.479-1.359-4.77-2.438c-1.407-2.27,0.062-4.559,1.034-7.042c-1.964,2.098-5.745,0.045-7.34-1.726l0.389-0.995
		c-0.496-0.191-1.485-0.58-1.984-0.774c-0.11-1.188,0.97-2.48,1.358-3.476l-0.995-0.387c-1.096-1.575,0.178-3.365,0.758-4.859
		c-1.491-0.581-3.476-1.359-3.391-3.042c0.087-1.686,1.858-3.281,1.556-3.975c-1.9-2.461-8.333-2.114-7.078-6.776
		c-3.566,0.324-3.467,3.701-10.137,1.609c-1.522-0.479-3.143-2.796-4.826-2.881c-1.683-0.088-2.982-1.167-4.468-1.751l0.386-0.992
		c-3.476-1.358-7.2,1.903-10.923-4.273c0.693-0.304,0.09-1.686,1.277-1.792c-1.987-0.778-3.476-1.359-5.271-2.633
		c0.389-0.993,0.476-2.679,2.162-2.591c-2.785-1.66-5.57-3.323-5.097-6.002c-0.13-4.056,2.312-8.828,7.275-6.887
		c-2.59-2.159-4.49-4.62-4.513-7.489c-0.214-2.374,0.95-5.354,2.332-5.959c3.453-1.512,1.488-3.688,2.76-5.478l3.134-0.804
		c1.661-2.784,1.229-7.534,4.491-8.549c1.381-0.606,5.051,0.256,4.575,2.934c0.282-2.179,1.75-4.465,3.929-4.186
		c2.678,0.474,5.655,1.641,7.558,4.102c0.778-1.987,1.249-4.665,3.622-4.88c3.174,0.668,7.146,2.222,6.089,6.388
		c0.477-2.675,3.541-3.193,5.421-3.603c0.496,0.191,1.485,0.581,1.485,0.581c1.274-1.79,3.758-0.817,4.559,0.064
		c0.603,1.384,1.705,2.96,2.306,4.339c0.606,1.384-1.164,2.979-0.558,4.36c0.389-0.989,0.279-2.179,0.97-2.48
		c1.189-0.107,2.678,0.474,3.476,1.358c0.107,1.187-0.668,3.174-1.254,4.663c0.502,0.194,0.998,0.389,0.998,0.389
		c0.409,1.877,0.126,4.06-0.648,6.044c1.491,0.583,3.67,0.865,4.082,2.742c0.104,1.185-0.972,2.483-1.361,3.476
		c1.271-1.792,3.561-0.324,4.856,0.756L142.753,322.73z"/>
</g>
<g>
	<path fill="#0072BC" d="M102.181,165.089c-0.479-0.24-1.443-1.204-1.443-1.926c0-1.683,0.722-0.961,1.925-0.722
		c1.443,0.242,4.569,0.242,4.569,2.407c-1.201,0.479-4.569,1.444-5.291-0.242"/>
	<g>
		<path fill="#0072BC" d="M102.26,164.954c-0.796-0.539-1.374-1.39-1.213-2.376c0.07-0.435,1.35,0.063,1.548,0.108
			c0.934,0.216,1.897,0.208,2.828,0.476c0.658,0.189,1.241,0.547,1.494,1.215c0.19,0.503-0.725,0.561-1.121,0.664
			c-1.122,0.296-2.912,0.631-3.572-0.601c-0.2-0.373-0.766-0.041-0.566,0.332c1.003,1.879,4.146,0.896,5.641,0.318
			c0.1-0.039,0.192-0.124,0.185-0.242c-0.181-2.632-3.475-2.26-5.313-2.802c-0.697-0.205-1.331-0.438-1.625,0.393
			c-0.417,1.186,0.612,2.267,1.556,2.784C102.28,165.321,102.425,165.066,102.26,164.954L102.26,164.954z"/>
	</g>
</g>
<g>
	<path fill="#0072BC" d="M98.815,160.519c0.961-1.204-6.977-4.329-6.495-0.964c1.923-0.24,4.809,2.165,6.495,1.443
		c0-0.479,0-0.961-0.243-1.201"/>
	<g>
		<path fill="#0072BC" d="M98.845,160.57c1.242-0.748-2.435-2.333-2.804-2.464c-1.442-0.51-4.347-0.906-4.122,1.449
			c0.02,0.207,0.167,0.415,0.401,0.401c2.251-0.137,4.335,2.16,6.592,1.394c0.148-0.051,0.275-0.184,0.267-0.351
			c-0.025-0.507-0.034-0.94-0.316-1.371c-0.236-0.36-0.808-0.033-0.58,0.339c0.156,0.333,0.212,0.676,0.169,1.032
			c0.089-0.117,0.178-0.234,0.267-0.351c-2.093,0.692-4.236-1.634-6.398-1.494c0.134,0.134,0.267,0.267,0.401,0.401
			c-0.167-1.676,2.193-1.143,3.165-0.885c0.669,0.177,2.973,0.85,2.871,1.849C98.752,160.564,98.809,160.591,98.845,160.57
			L98.845,160.57z"/>
	</g>
</g>
<text transform="matrix(1 0 0 1 237.668 241.2861)" fill="#333333" font-family="Liberation Sans, Helvetica, Arial, sans-serif" font-size="14.1">T2</text>
<text transform="matrix(1 0 0 1 237.668 190.8301)" fill="#333333" font-family="Liberation Sans, Helvetica, Arial, sans-serif" font-size="14.1">Ta</text>
<text transform="matrix(1 0 0 1 237.668 165.8145)" fill="#333333" font-family="Liberation Sans, Helvetica, Arial, sans-serif" font-size="14.1">CIS</text>
<text transform="matrix(1 0 0 1 123.4155 84.4263)" fill="#333333" font-family="Liberation Sans, Helvetica, Arial, sans-serif" font-size="14.1">Connective tissue</text>
<text transform="matrix(1 0 0 1 123.4155 108.7646)" fill="#333333" font-family="Liberation Sans, Helvetica, Arial, sans-serif" font-size="14.1">Bladder lining</text>
<text transform="matrix(1 0 0 1 123.4155 60.0908)" fill="#333333" font-family="Liberation Sans, Helvetica, Arial, sans-serif" font-size="14.1">Muscle</text>
<text transform="matrix(1 0 0 1 30.2583 31.9033)" fill="#333333" font-family="Liberation Sans, Helvetica, Arial, sans-serif" font-size="14.1">Fat</text>
<text transform="matrix(1 0 0 1 237.668 291.7422)" fill="#333333" font-family="Liberation Sans, Helvetica, Arial, sans-serif" font-size="14.1">T3</text>
<text transform="matrix(1 0 0 1 237.668 368.9746)" fill="#333333" font-family="Liberation Sans, Helvetica, Arial, sans-serif" font-size="14.1">T4</text>
<text transform="matrix(1 0 0 1 237.668 212.3027)" fill="#333333" font-family="Liberation Sans, Helvetica, Arial, sans-serif" font-size="14.1">T1</text>
<line fill="none" stroke="#333333" x1="145.961" y1="184.813" x2="232.558" y2="184.813"/>
<line fill="none" stroke="#333333" x1="162.189" y1="206.464" x2="232.558" y2="206.464"/>
<line fill="none" stroke="#333333" x1="189.98" y1="234.366" x2="232.558" y2="234.366"/>
<line fill="none" stroke="#333333" x1="194.55" y1="285.843" x2="233.039" y2="285.843"/>
<line fill="none" stroke="#333333" x1="169.775" y1="362.818" x2="233.039" y2="362.818"/>
<line fill="none" stroke="#333333" x1="98.093" y1="159.555" x2="233.042" y2="159.555"/>
<polyline fill="none" stroke="#333333" points="51.156,129.007 51.156,53.478 119.348,53.478 "/>
<polyline fill="none" stroke="#333333" points="66.555,149.213 66.555,78.016 119.348,78.016 "/>
<polyline fill="none" stroke="#333333" points="83.872,159.313 83.872,102.064 119.348,102.064 "/>
<line fill="none" stroke="#333333" x1="36.5" y1="109" x2="36.5" y2="38"/>
</svg>
